<?xml version="1.0" encoding="UTF-8"?>
<svg id="Layer_1" data-name="Layer 1" xmlns="http://www.w3.org/2000/svg" xmlns:xlink="http://www.w3.org/1999/xlink" viewBox="0 0 880.78 502.61">
  <defs>
    <style>
      .cls-1 {
        fill: #e1ddd8;
      }

      .cls-2 {
        fill: #d4a172;
      }

      .cls-3 {
        fill: url(#linear-gradient-5);
      }

      .cls-4 {
        fill: url(#linear-gradient-6);
      }

      .cls-5 {
        fill: url(#linear-gradient-4);
      }

      .cls-6 {
        fill: url(#linear-gradient-3);
      }

      .cls-7 {
        fill: url(#linear-gradient-2);
      }

      .cls-8 {
        fill: rgba(231, 230, 230, .88);
      }

      .cls-9 {
        fill: rgba(231, 230, 230, .78);
      }

      .cls-10 {
        fill: rgba(231, 230, 230, .37);
      }

      .cls-11 {
        fill: rgba(231, 230, 230, .97);
      }

      .cls-12 {
        fill: #e7e6e6;
      }

      .cls-13 {
        fill: rgba(231, 230, 230, .15);
      }

      .cls-14 {
        fill: url(#linear-gradient);
      }

      .cls-15 {
        fill: #764b2a;
      }

      .cls-16 {
        fill: #9f6d4a;
      }

      .cls-17 {
        fill: #343232;
      }

      .cls-18 {
        fill: #c49061;
      }

      .cls-19 {
        fill: #565655;
      }

      .cls-20 {
        fill: #252424;
      }

      .cls-21 {
        fill: #442b1b;
      }

      .cls-22 {
        fill: #b8835a;
      }

      .cls-23 {
        fill: #454444;
      }

      .cls-24 {
        fill: #e5bd92;
      }

      .cls-25 {
        fill: #8c5b3b;
      }

      .cls-26 {
        fill: #eac79f;
      }
    </style>
    <linearGradient id="linear-gradient" x1="921.32" y1="-507.61" x2="418.86" y2="-721.46" gradientTransform="translate(-120.8 -3.55) scale(.5 -.5)" gradientUnits="userSpaceOnUse">
      <stop offset="0" stop-color="#4d2d17"/>
      <stop offset="1" stop-color="#25272a"/>
    </linearGradient>
    <linearGradient id="linear-gradient-2" x1="939.73" y1="-196.85" x2="996.45" y2="-128.37" gradientTransform="translate(-120.8 -3.55) scale(.5 -.5)" gradientUnits="userSpaceOnUse">
      <stop offset="0" stop-color="#1f1e1e"/>
      <stop offset="1" stop-color="#3a3a39"/>
    </linearGradient>
    <linearGradient id="linear-gradient-3" x1="901.37" y1="-561.29" x2="674.15" y2="-791.63" gradientTransform="translate(-120.8 -3.55) scale(.5 -.5)" gradientUnits="userSpaceOnUse">
      <stop offset="0" stop-color="#624229"/>
      <stop offset="1" stop-color="#8b5731"/>
    </linearGradient>
    <linearGradient id="linear-gradient-4" x1="997.49" y1="-7.08" x2="1282.33" y2="-188.67" gradientTransform="translate(-120.8 -3.55) scale(.5 -.5)" gradientUnits="userSpaceOnUse">
      <stop offset="0" stop-color="#e5c097"/>
      <stop offset="1" stop-color="#f2debe"/>
    </linearGradient>
    <linearGradient id="linear-gradient-5" x1="1415.94" y1="-877.72" x2="1609.58" y2="-832.19" gradientTransform="translate(-120.8 -3.55) scale(.5 -.5)" gradientUnits="userSpaceOnUse">
      <stop offset="0" stop-color="#4f2c15"/>
      <stop offset="1" stop-color="#29292a"/>
    </linearGradient>
    <linearGradient id="linear-gradient-6" x1="1459.14" y1="-788.82" x2="1560.9" y2="-775.95" gradientTransform="translate(-120.8 -3.55) scale(.5 -.5)" gradientUnits="userSpaceOnUse">
      <stop offset="0" stop-color="#302c2b"/>
      <stop offset="1" stop-color="#595a5b"/>
    </linearGradient>
  </defs>
  <path class="cls-24" d="M420.72,49.36c3.55,1.68,13.3,4.33,17.4,5.55l31.34,9.42,25.37,7.78c3.65,1.13,10.5,3.44,14.01,4.05,2.31,4.57,4.7,11.55,6.54,16.49,3.95,10.59,7.76,21.23,11.45,31.92,3.68,10.35,9.3,23.49,12.37,33.66l50.91,1.1c8.23.16,21.95.66,29.85.11.45-1.62.35-13.93.41-16.72l.59-38.68c.12-6.19.1-14.39.71-20.43,3.96,2.87,13.55,12.94,17.42,16.8,10.63,10.43,21.2,20.93,31.7,31.5,4.73,4.69,17.92,16.08,20.89,20.7,2.95,4.58,9.32,17.65,12.17,23.17l25.63,49.8,12.77,24.66c2.07,3.98,6.58,13.15,9.18,16.18,8.87,6.77,22.96,17.73,30.77,25.35,2.56,2.49,10.41,23.17,12.46,28.3,5.94,14.86,13.51,31.43,18.94,46.49,3.04,6.13,12.2,19.22,16.5,25.71,11.45,17.01,22.69,34.15,33.72,51.43,5.33,8.26,12.61,18.77,16.96,27.33-18.91.19-37.81.26-56.72.22-14.54.01-31.73.29-46.1-.56.18,2.68.44,5.83-.41,8.39-.91.37-.51.4-1.18.21-17.53,1.39-22.47,3.39-39.96-1.58,6.08,15.78,8.37,10.04,17.51,19.92l.47.51c-16.86-5.67-18.64-3.98-23.28-21.11-2.7-2.3-6.36-4.88-9.49-6.54-11.98-.82-29.81-.34-42.13-.36.94-5.84,2.39-13.86,4.15-19.49,6.48-3.16,8.35-3.69,11.51-10.15-.67-1.25-.74-1.21-1.83-2.17-1.8-.57-2.52-.22-4.36.19-1.95-1.66-3.83-3.1-5.08-5.31-.54-.61-.62-.83-1.03-1.53.48-1.92,3.19-9.95,4.43-11.09l-1.62-1.72c-1.55-1.5-7.75-13.24-8.63-15.7-2.61-1.33-11.33-3.49-14.26-3.73l-.52-.43c-.58-1.63-.05-3.84.2-5.63l-.65-2.37c-1.09-.92-4.36-8.73-5.75-11.17-3.11-.62-11.62-2.01-14.38-1.36-1.25.38-1.36.2-2.68-.11-2.4-.21-4.16-.31-6.08,1.26,1.24,1.66,1.87,2.36,1.6,4.37l-.93.42c-3.87-.95-4.53-2.09-7.35-4.95-5.32-5.81-10.81-11.47-16.45-16.97-7.27-.65-14.38-1.42-21.52-2.99-2.53,14-7.45,32.15-9.37,45.19-11.87-.4-82.24-11.05-86.12-8.82l-.39-.61-.2-.1c-3.61-2.43-81.92-9.27-94.46-11.9l-32.73-60.39c-4.35-9.09-11.23-19.11-15-27.66,2.16-4.26,5.29-12.59,7.21-17.28l.28-.25c6.48-13.38,13.77-33.68,19.56-47.81l16.94-41.73c4.13-9.96,9.1-21.04,12.85-31,1.2-2.61,4.21-29.68,4.53-33.82,1.89-24.45,7.65-49.64,9.36-73.89Z"/>
  <path class="cls-2" d="M751.43,266.4c8.87,6.77,22.96,17.73,30.77,25.35,2.56,2.49,10.41,23.17,12.46,28.3,5.94,14.86,13.51,31.43,18.94,46.49,3.04,6.13,12.2,19.22,16.5,25.71,11.45,17.01,22.69,34.15,33.72,51.43,5.33,8.26,12.61,18.77,16.96,27.33-18.91.19-37.81.26-56.72.22-14.54.01-31.73.29-46.1-.56.18,2.68.44,5.83-.41,8.39-.91.37-.51.4-1.18.21-17.53,1.39-22.47,3.39-39.96-1.58,6.08,15.78,8.37,10.04,17.51,19.92l.47.51c-16.86-5.67-18.64-3.98-23.28-21.11-2.7-2.3-6.36-4.88-9.49-6.54-11.98-.82-29.81-.34-42.13-.36.94-5.84,2.39-13.86,4.15-19.49,6.48-3.16,8.35-3.69,11.51-10.15-.67-1.25-.74-1.21-1.83-2.17-1.8-.57-2.52-.22-4.36.19-1.95-1.66-3.83-3.1-5.08-5.31-.54-.61-.62-.83-1.03-1.53.48-1.92,3.19-9.95,4.43-11.09l-1.62-1.72c-1.55-1.5-7.75-13.24-8.63-15.7-2.61-1.33-11.33-3.49-14.26-3.73l-.52-.43c-.58-1.63-.05-3.84.2-5.63l-.65-2.37c1.96-4.13,44-29.04,46.31-33.37-16.83-7.62-40.3-19.61-57.3-26.15.72-1.3,4.89-13.26,5.73-15.58,3.31-9.15,6.9-18.25,10.41-27.34,1.67-4.34,3.93-11.78,6.46-15.38,2.97-1.76,69.67-5.77,78.05-6.72Z"/>
  <path class="cls-24" d="M708.09,357.57l.69-.34c1.64,2,2.12,2.78,3.39,5.05,5.03.82,17.41,10.37,20.38,14.69,16.29,23.62,32.89,47.03,49.08,70.73,4.59,6.71,10.57,13.54,15.42,20.17,1.81-13.54,4.89-28.93,7.15-42.58l9.4-58.73c3.04,6.13,12.2,19.22,16.5,25.71,11.45,17.01,22.69,34.15,33.72,51.43,5.33,8.26,12.61,18.77,16.96,27.33-18.91.19-37.81.26-56.72.22-14.54.01-31.73.29-46.1-.56.18,2.68.44,5.83-.41,8.39-.91.37-.51.4-1.18.21-17.53,1.39-22.47,3.39-39.96-1.58,6.08,15.78,8.37,10.04,17.51,19.92l.47.51c-16.86-5.67-18.64-3.98-23.28-21.11-2.7-2.3-6.36-4.88-9.49-6.54-11.98-.82-29.81-.34-42.13-.36.94-5.84,2.39-13.86,4.15-19.49,6.48-3.16,8.35-3.69,11.51-10.15-.67-1.25-.74-1.21-1.83-2.17-1.8-.57-2.52-.22-4.36.19-1.95-1.66-3.83-3.1-5.08-5.31-.54-.61-.62-.83-1.03-1.53.48-1.92,3.19-9.95,4.43-11.09l-1.62-1.72c-1.55-1.5-7.75-13.24-8.63-15.7-2.61-1.33-11.33-3.49-14.26-3.73l-.52-.43c-.58-1.63-.05-3.84.2-5.63l-.65-2.37c1.96-4.13,44-29.04,46.31-33.37Z"/>
  <path class="cls-20" d="M685.64,418.81c2.72-.83,14.01-1.46,17.78-1.84.73,1,1.55,1.86,1.88,2.98,1.01,1.86,2.16,4.53,4.03,5.46l1.27-.98c3.51,1.26,3.36,1.98,5.04,5.28,1.86,3.64,4.83,13.03,7.08,15.92,2.23.32,20.83,7.39,22.27,8.66,6.91,6.13,25.19,17.07,31,23.2l.39,1.75c-17.53,1.39-22.47,3.39-39.96-1.58,6.08,15.78,8.37,10.04,17.51,19.92l.47.51c-16.86-5.67-18.64-3.98-23.28-21.11-2.7-2.3-6.36-4.88-9.49-6.54-11.98-.82-29.81-.34-42.13-.36.94-5.84,2.39-13.86,4.15-19.49,6.48-3.16,8.35-3.69,11.51-10.15-.67-1.25-.74-1.21-1.83-2.17-1.8-.57-2.52-.22-4.36.19-1.95-1.66-3.83-3.1-5.08-5.31-.54-.61-.62-.83-1.03-1.53.48-1.92,3.19-9.95,4.43-11.09l-1.62-1.72Z"/>
  <path class="cls-25" d="M695.14,440.45c2.29,3.5,4.03,6.04,6.61,9.31l4.31-5.58c2.37,6.46,3.53,11.67,5.2,18.33,3.66,3.64,8.04,5.65,10.36,7.94-11.98-.82-29.81-.34-42.13-.36.94-5.84,2.39-13.86,4.15-19.49,6.48-3.16,8.35-3.69,11.51-10.15Z"/>
  <path class="cls-19" d="M685.64,418.81c2.72-.83,14.01-1.46,17.78-1.84.73,1,1.55,1.86,1.88,2.98-1.66,3.85-2.27,7.82-3.18,11.93-5.2-3.44-10.17-7.24-14.86-11.35l-1.62-1.72Z"/>
  <path class="cls-23" d="M709.34,425.41l1.27-.98c3.51,1.26,3.36,1.98,5.04,5.28,1.86,3.64,4.83,13.03,7.08,15.92.91,2.38,5.12,11.91,4.89,13.74h.03c-1.29.12-2.38-1.05-3.24-1.98-7.75-8.38-9.25-20.88-13.51-31.07-.52-.31-1.03-.61-1.54-.91Z"/>
  <path class="cls-25" d="M708.09,357.57l.69-.34c1.64,2,2.12,2.78,3.39,5.05,1.94,4.78,14.03,41.18,14.9,42.45-2.22,3.98-12.87,15.86-16.47,19.71l-1.27.98c-1.86-.93-3.02-3.6-4.03-5.46-.34-1.12-1.15-1.97-1.88-2.98-3.77.38-15.06,1.01-17.78,1.84-1.55-1.5-7.75-13.24-8.63-15.7-2.61-1.33-11.33-3.49-14.26-3.73l-.52-.43c-.58-1.63-.05-3.84.2-5.63l-.65-2.37c1.96-4.13,44-29.04,46.31-33.37Z"/>
  <path class="cls-23" d="M677.01,403.12c6,1.91,12.89,3.86,18.49,6.57.81.39.73.36,1.65.26,1.03,2.07,3.21,5.01,5.02,6.48l.88.16.38.39c-3.77.38-15.06,1.01-17.78,1.84-1.55-1.5-7.75-13.24-8.63-15.7Z"/>
  <path class="cls-19" d="M662.75,399.38c5-1.64,10.79-2.79,15.97-3.96,2.7,1.75,17.76,12.6,18.42,14.53-.92.1-.84.12-1.65-.26-5.6-2.71-12.49-4.66-18.49-6.57-2.61-1.33-11.33-3.49-14.26-3.73Z"/>
  <path class="cls-20" d="M697.15,409.95c2.67-.29,2.03-.59,4.18.37,1.56,1.7,1.6,3.98,1.72,6.27l-.88-.16c-1.81-1.47-3.99-4.41-5.02-6.48Z"/>
  <path class="cls-17" d="M727.08,404.72l1.38-.74c2.44,1.02,7.41,11.48,9.28,14.43,2.38,2.36,14.89,2.75,18.87,3.41,5.86,7.24,13.42,16.68,18.63,24.47.91,1.32,1.34,1.77,1.8,3.33,0,2.28.54,19.26.93,21.03.18,2.68.44,5.83-.41,8.39-.91.37-.51.4-1.18.21l-.39-1.75c-5.81-6.14-24.09-17.08-31-23.2-1.44-1.27-20.03-8.34-22.27-8.66-2.25-2.89-5.22-12.27-7.08-15.92-1.68-3.3-1.53-4.02-5.04-5.28,3.61-3.85,14.25-15.73,16.47-19.71Z"/>
  <path class="cls-23" d="M751.58,430.03c-2.54-.74-23.98-10.31-24.62-12.01,4.32-1.4,7.74,1.69,10.78.39,2.38,2.36,14.89,2.75,18.87,3.41,5.86,7.24,13.42,16.68,18.63,24.47.91,1.32,1.34,1.77,1.8,3.33-5.23,1.33-27.57,3.81-32.62,3.64,2.31-7.6,5.24-15.66,7.16-23.24Z"/>
  <path class="cls-19" d="M756.61,421.83c5.86,7.24,13.42,16.68,18.63,24.47-3.48-.93-19.54-13.05-23.25-15.93,1.52-2.86,3.06-5.71,4.62-8.54Z"/>
  <path class="cls-26" d="M673.38,273.12c1.25,4.24,4.88,11.64,6.81,16.1l18.59,43.45c1.54,3.55,10.41,22.34,10,24.55l-.69.34c-16.83-7.62-40.3-19.61-57.3-26.15.72-1.3,4.89-13.26,5.73-15.58,3.31-9.15,6.9-18.25,10.41-27.34,1.67-4.34,3.93-11.78,6.46-15.38Z"/>
  <path class="cls-2" d="M420.72,49.36c3.55,1.68,13.3,4.33,17.4,5.55l31.34,9.42,25.37,7.78c3.65,1.13,10.5,3.44,14.01,4.05,2.31,4.57,4.7,11.55,6.54,16.49,3.95,10.59,7.76,21.23,11.45,31.92,3.68,10.35,9.3,23.49,12.37,33.66-4.48,2.41-14.74,9.89-19.26,13.09-4.85,3.43-13.6,9.25-17.85,12.79-1.92.8-1.37.15-2.07,1.66-1.18,11.03-2.36,23.82-4.27,34.64-.16,7.14,10.52,46.13,12.95,55.82-7.97.69-19.38.31-27.69.48l-72.33.76c-9.81.07-40.27,1.64-48.16-.01-1.07.13-1.96.14-3.03.18,6.48-13.38,13.77-33.68,19.56-47.81l16.94-41.73c4.13-9.96,9.1-21.04,12.85-31,1.2-2.61,4.21-29.68,4.53-33.82,1.89-24.45,7.65-49.64,9.36-73.89Z"/>
  <path class="cls-18" d="M494.98,223.93c.28-.53.62-2.79.76-3.53-.16,7.14,10.52,46.13,12.95,55.82-7.97.69-19.38.31-27.69.48l-72.33.76c-9.81.07-40.27,1.64-48.16-.01,11.92-5.56,31.4-12.43,44.13-17.41,30.22-11.78,60.33-23.82,90.35-36.11Z"/>
  <path class="cls-26" d="M407.92,156.28c6.01,2.5,19.75,6.33,26.48,8.42l48.78,15.32c4.55,1.41,11.34,3.48,16.14,4.75.23.33.46.67.7,1-1.18,11.03-2.36,23.82-4.27,34.64-.14.74-.48,2.99-.76,3.53-17.19-11.79-35.94-27.4-52.47-40.27-8.4-6.54-28.19-20.8-34.58-27.38Z"/>
  <path class="cls-22" d="M508.69,276.22c3.45-.24,7.62-.25,11.09-.25,18.77.03,37.8-1.39,56.53-1.33-1.55.21-3.1.46-4.66.52,4.37,11.46,6.65,24,9.99,35.72,1.31,4.57,7.82,34.36,9.76,35.58-1.2,1.44-1.98,7.18-2.18,9.17l.61.95c-4.33-.51-10.79-1.02-15.13-.86,4.85,1.82,8.46,2.67,13.55,3.71-2.53,14-7.45,32.15-9.37,45.19-11.87-.4-82.24-11.05-86.12-8.82l-.39-.61-.2-.1c-3.61-2.43-81.92-9.27-94.46-11.9l-32.73-60.39c-4.35-9.09-11.23-19.11-15-27.66,2.16-4.26,5.29-12.59,7.21-17.28l.28-.25c1.07-.03,1.97-.04,3.03-.18,7.89,1.65,38.35.08,48.16.01l72.33-.76c8.31-.17,19.72.21,27.69-.48Z"/>
  <path class="cls-2" d="M492.37,395.2c8.06-11.53,77.53-118.93,79.28-120.03,4.37,11.46,6.65,24,9.99,35.72,1.31,4.57,7.82,34.36,9.76,35.58-1.2,1.44-1.98,7.18-2.18,9.17l.61.95c-4.33-.51-10.79-1.02-15.13-.86,4.85,1.82,8.46,2.67,13.55,3.71-2.53,14-7.45,32.15-9.37,45.19-11.87-.4-82.24-11.05-86.12-8.82l-.39-.61Z"/>
  <path class="cls-21" d="M539.19,158.22l50.91,1.1c8.23.16,21.95.66,29.85.11,2.11,2.05,7.96,11.93,9.78,14.91l17.22,28.2c-12.84,7.42-33.8,13.31-46.65,20.47.1,9.27-1.94,22.71-2.47,32.2-.15,2.65-1.36,16.63-1.89,18.97-5.53.58-13.85.42-19.64.46-18.73-.07-37.77,1.36-56.53,1.33-3.47,0-7.64,0-11.09.25-2.43-9.69-13.11-48.68-12.95-55.82,1.91-10.82,3.1-23.6,4.27-34.64.7-1.51.15-.86,2.07-1.66,4.26-3.53,13.01-9.36,17.85-12.79,4.53-3.2,14.78-10.68,19.26-13.09Z"/>
  <path class="cls-15" d="M539.19,158.22l50.91,1.1c8.23.16,21.95.66,29.85.11,2.11,2.05,7.96,11.93,9.78,14.91l17.22,28.2c-12.84,7.42-33.8,13.31-46.65,20.47-.96-1.31-2.15-3.84-2.99-5.36-6.04-10.94-12.88-21.43-19.1-32.26-26.08-.39-50,.18-76.14-1.28,4.26-3.53,13.01-9.36,17.85-12.79,4.53-3.2,14.78-10.68,19.26-13.09Z"/>
  <path class="cls-25" d="M646.96,202.54c1.95,3.35,10.12,26.37,11.72,31.38,3.92,12.34,10.1,26.41,13.9,38.35-25.08,1.03-51.41,1.28-76.63,1.92.53-2.34,1.74-16.32,1.89-18.97.53-9.49,2.57-22.93,2.47-32.2,12.85-7.16,33.82-13.05,46.65-20.47Z"/>
  <path class="cls-15" d="M650.79,331.43c17.01,6.53,40.47,18.53,57.3,26.15-2.31,4.33-44.35,29.24-46.31,33.37-1.09-.92-4.36-8.73-5.75-11.17-3.11-.62-11.62-2.01-14.38-1.36-1.01-10-4.31-25.61-6.28-35.74l-8.18-4.62c3.29-1.69,19.02-5.47,23.6-6.63Z"/>
  <path class="cls-15" d="M591.4,346.47c5.77-1.8,23.54-6.31,29.36-6.92,3.66,1.88,7.3,3.8,10.92,5.75,2.21,11.05,5.09,21.89,7.3,33-2.4-.21-4.16-.31-6.08,1.26,1.24,1.66,1.87,2.36,1.6,4.37l-.93.42c-3.87-.95-4.53-2.09-7.35-4.95-5.32-5.81-10.81-11.47-16.45-16.97-7.27-.65-14.38-1.42-21.52-2.99-5.09-1.04-8.71-1.89-13.55-3.71,4.34-.16,10.8.35,15.13.86l-.61-.95c.2-1.99.98-7.73,2.18-9.17Z"/>
  <path class="cls-12" d="M574.69,355.72c4.34-.16,10.8.35,15.13.86,6.5-.09,13.85,1.34,19.13,1.24,5.36.41,9.83,7.09,13.95,11.19,3.31,3.49,6.74,7.01,9.99,10.54,1.24,1.66,1.87,2.36,1.6,4.37l-.93.42c-3.87-.95-4.53-2.09-7.35-4.95-5.32-5.81-10.81-11.47-16.45-16.97-7.27-.65-14.38-1.42-21.52-2.99-5.09-1.04-8.71-1.89-13.55-3.71Z"/>
  <path class="cls-21" d="M608.95,357.83l.37-.9c2.3-.38,5.56-.66,7.61-1.2,3.49,3.3,8,8.19,5.97,13.28-4.12-4.1-8.6-10.77-13.95-11.19Z"/>
  <path class="cls-12" d="M597.94,325.14c12.66,2.02,18.3,6.17,29.25,12.91l8.18,4.62c1.97,10.13,5.27,25.75,6.28,35.74-1.25.38-1.36.2-2.68-.11-2.2-11.11-5.08-21.96-7.3-33-3.62-1.95-7.26-3.86-10.92-5.75-3.23-.43-19.05-11.83-22.81-14.41Z"/>
  <path class="cls-14" d="M369.33,12.34c-.02,1.64-.12,1.97-.65,3.44,1.19.79,1.45.52,3.13.59-4.1,3.55-8.16,7.31-12.28,10.77-2.27,6.29-2.15,27.29-2.09,34.58,3.29-1.07,6.27-1.88,9.73-1.72-1.84,3.11-3.56,5.18-3.47,8.78l1.2.86c2.44-1.69,4.89-5.49,6.71-7.99.39-.7,1.76-2.59,2.28-3.33,13.54-2.88,32.69-7.7,45.82-9.65l1.03.7c-1.71,24.25-7.47,49.44-9.36,73.89-.32,4.14-3.33,31.21-4.53,33.82-3.75,9.97-8.72,21.04-12.85,31l-16.94,41.73c-5.79,14.13-13.08,34.43-19.56,47.81l-.28.25c-1.93,4.69-5.06,13.01-7.21,17.28,3.77,8.55,10.65,18.56,15,27.66l32.73,60.39c-2.66,8.72-32.17,81.08-35.72,85.27-24.87-.48-50.8.13-75.87-.01,4.55,10.58,8.91,10.79,13.59,18.31-.91-.31-1.82-.62-2.72-.94-9.93-3.58-12.69-8.44-16.9-17.4-11.31-.26-21.1.11-32.31.68,1.31,2.84.84,8.84,1.86,11.53,2.44,6.48,4.9,9.1,6.74,16.04l-.45-.37-.74-.62c-8.72-7.34-11.38-15.68-11.59-26.98-5.38.2-10.76.31-16.14.35-5.34-.04-14.19-.33-19.24.13-2.8,4.44-13.69,7.54-17.2,12.15-3.03,3.97-4.29,9.08-6.44,13.48-2.97,2.11-14.43,7.9-17.6,7.8.01-1-.04-.48.95-1.45,7.47-7.3,11.39-8.38,16.08-18.24-20.75,5.33-25.47.78-43.81-.16,0-3.69-.31-9.3,1.08-12.53-2.62.06-4.6.05-7.23-.06-4.02.44-10.68.48-14.75.14-11.09-.92-22-.8-33.11-.83-22.15.31-44.38-.16-66.54,0-6.82.05-12.89.96-19.65,1.66,4.93-8.94,14.84-23.52,20.68-32.92,14.54-23.49,29.22-46.89,44.05-70.21l.72-1.18c3.63-7.01,7.21-16.6,10.15-23.97,4.24-10.33,8.37-20.7,12.4-31.11,2.84-7.41,7.17-20.52,11.35-26.86,1.45-2.19,9.93-9.58,12.25-11.65,6.6-5.8,13.11-11.71,19.52-17.72,7.74-6.89,11.75-17.87,16.52-27.12,7.8-15.09,15.49-30.23,23.07-45.43,2.36-4.8,6.29-13.71,8.96-17.74,6.72-5.51,24.02-13.97,32.19-18.52,4.04-2.25,8.37-4.4,11.71-7.66,4.46-4.36,7.36-11.37,10.31-16.8,4.83-8.88,9.86-17.65,14.76-26.49,3.44-6.21,6.65-13.25,11.02-18.82,4.64-5.92,64.84-43.86,74.67-50.04,12.53-8.57,12.94-7.86,28.17-9.92,2.55-.47,4.8-2.88,6.83-4.65ZM279.9,388.46c1.08,1.27.41.9,2.06,1.18,1.58-1.35,1.01-.5,1.46-2.82,2.46-9.39,4.58-18.86,6.38-28.4,8.74-4.35,17.58-8.36,25.28-14.42,1.82-1.43,3.41-2.3,5.49-3.31-17.52,3.31-19.96,7.36-34.97,15.45l-4.05,23.31c-.32,1.83-1.14,7.74-1.65,9.01ZM294.7,390.89l2.15.07c2.31-1.5,8.27-7.13,9.97-9.24,1.94-2.07,4.56-4.39,6.69-6.37,12.81-.16,25.7-1.28,38.16-4.41-13.35-.66-26.72-.71-40.07-.13-3.09,2.85-6.16,6.08-9.13,9.09-1.71,1.05-4.7,4.23-6.17,5.8l.34,1.01c-2,3.06-4.36,5.04-6.67,7.81,2.14-1.34,2.98-1.73,4.73-3.63ZM288.77,400.64c-3.61.65-4.51,1.99-6.04,5.5,1.59,7.22,7.86,13.93,14.81,5.9.55-.64,1.02-4.47,1.14-5.57-4.15-4.36-4.14-4.07-9.91-5.83Z"/>
  <path class="cls-9" d="M288.77,400.64c5.76,1.75,5.76,1.47,9.91,5.83-.12,1.1-.59,4.93-1.14,5.57-6.95,8.04-13.22,1.33-14.81-5.9,1.53-3.51,2.43-4.85,6.04-5.5Z"/>
  <path class="cls-10" d="M296.3,385.71c1.46-1.57,4.45-4.75,6.17-5.8,1.34.7,2.66,1,3.83,1.83h.52c-1.7,2.1-7.67,7.73-9.97,9.23l-2.15-.07c2.19-2.04,3.27-1.04,1.94-4.17l-.34-1.01Z"/>
  <path class="cls-13" d="M296.64,386.72c1.33,3.13.24,2.13-1.94,4.17-1.75,1.91-2.58,2.3-4.73,3.63,2.3-2.77,4.66-4.74,6.67-7.81Z"/>
  <path class="cls-22" d="M369.33,12.34c-.02,1.64-.12,1.97-.65,3.44,1.19.79,1.45.52,3.13.59-4.1,3.55-8.16,7.31-12.28,10.77-2.27,6.29-2.15,27.29-2.09,34.58,3.29-1.07,6.27-1.88,9.73-1.72-1.84,3.11-3.56,5.18-3.47,8.78l1.2.86c2.44-1.69,4.89-5.49,6.71-7.99.39-.7,1.76-2.59,2.28-3.33,13.54-2.88,32.69-7.7,45.82-9.65l1.03.7c-1.71,24.25-7.47,49.44-9.36,73.89-.32,4.14-3.33,31.21-4.53,33.82-3.75,9.97-8.72,21.04-12.85,31l-16.94,41.73c-5.79,14.13-13.08,34.43-19.56,47.81l-.28.25c-1.93,4.69-5.06,13.01-7.21,17.28-17.99-.82-41.65.16-59.9.25-18.66.09-40.16-.82-58.29-.17-2.21-3.27-8.36-18.06-10.06-22.28-1.53-2.82-5.53-14.01-6.88-17.53-6.41-16.47-12.74-32.96-18.98-49.49-2.04-5.54-13.16-37.5-16.19-40.68,6.72-5.51,24.02-13.97,32.19-18.52,4.04-2.25,8.37-4.4,11.71-7.66,4.46-4.36,7.36-11.37,10.31-16.8,4.83-8.88,9.86-17.65,14.76-26.49,3.44-6.21,6.65-13.25,11.02-18.82,4.64-5.92,64.84-43.86,74.67-50.04,12.53-8.57,12.94-7.86,28.17-9.92,2.55-.47,4.8-2.88,6.83-4.65Z"/>
  <path class="cls-20" d="M419.69,48.66l1.03.7c-1.71,24.25-7.47,49.44-9.36,73.89-.32,4.14-3.33,31.21-4.53,33.82l-.43-.37-1.33.12c-7,5.83-18.31,12.27-26.5,17.34-12.15,7.53-25.86,17.62-38.12,24.49,1.23,3.5,1.33,9.23,1.51,13l-3.86-11.51c-2.77-6.63-5.48-14.06-8.1-20.82-6.44-.33-9.91-.43-16.04-2.13-1.68,2.68-3.92,6.31-6.17,8.57l-1.02.82c-3.28-3.62-13.79-12.45-15.96-15.53-5.17-5.5-12.76-14.85-18.01-19.47,1.07-1.45,4.65-4.54,6.12-6.08,4.07-3.97,7.63-8.56,11.64-12.58,1.94-1.94,5.53-3.12,7.96-4.93,1.94,1.19,7.89,5.36,9.45,5.55.53-12.87,1.93-14.79-1.06-27.69l7.91,3.13c2.93-6.36,5.89-12.7,8.9-19.02,1.03-.45,12.55-1.87,14.33-2.13l.74-6.79c1.56-5.18,2.26-9.54,4.13-15.04,3.68-1.31,7.45-2.35,11.28-3.12l.08-.38,3.14-.78c3.29-1.07,6.27-1.88,9.73-1.72-1.84,3.11-3.56,5.18-3.47,8.78l1.2.86c2.44-1.69,4.89-5.49,6.71-7.99.39-.7,1.76-2.59,2.28-3.33,13.54-2.88,32.69-7.7,45.82-9.65Z"/>
  <path class="cls-22" d="M419.69,48.66l1.03.7c-1.71,24.25-7.47,49.44-9.36,73.89-.32,4.14-3.33,31.21-4.53,33.82l-.43-.37c-.17-.73-10.82-13.34-12.1-14.63l.24-.71c2.77.16,5.62.04,8.4-.01-16.98-5.54-26.13-18.58-40.78-28.62-4.31,2.39-8.41,4.78-12.96,6.69,2.38-1.94,5.8-4.23,8.39-6.18.45-.68.9-1.37,1.34-2.06-.23-1.66.09-.96-.88-2.22-2.29.23-3.61,3.3-7.46,4.27-1.05.62-3.53,2.59-4.62,3.4,2.44-6.2,5.02-11.3,6.48-17.82-1.85-3.92-4.23-7.85-7.95-10.21l-2.47-1.64c-2.98-1.96-2.94-2.3-3.24-5.92,1.56-5.18,2.26-9.54,4.13-15.04,3.68-1.31,7.45-2.35,11.28-3.12l.08-.38,3.14-.78c3.29-1.07,6.27-1.88,9.73-1.72-1.84,3.11-3.56,5.18-3.47,8.78l1.2.86c2.44-1.69,4.89-5.49,6.71-7.99.39-.7,1.76-2.59,2.28-3.33,13.54-2.88,32.69-7.7,45.82-9.65Z"/>
  <path class="cls-7" d="M357.43,61.72c3.29-1.07,6.27-1.88,9.73-1.72-1.84,3.11-3.56,5.18-3.47,8.78l1.2.86c-.61,1.36-.64,1.15-.87,2.56,4.98-.56,9.07-.95,12.54,3.35,1.11-1.72,14.59-2.3,17.18-2.28l1.43.89c.26,2.14-5.94,8.01-7.6,9.75-3.95,4.13-8.42,10.09-13.07,13.22-4.51,3.04-17.04,3.61-22.04,1.67-1.85-3.92-4.23-7.85-7.95-10.21l-2.47-1.64c-2.98-1.96-2.94-2.3-3.24-5.92,1.56-5.18,2.26-9.54,4.13-15.04,3.68-1.31,7.45-2.35,11.28-3.12l.08-.38,3.14-.78Z"/>
  <path class="cls-12" d="M364.02,72.2c4.98-.56,9.07-.95,12.54,3.35.98,4.68-.38,9.88-5.73,10.73-2.32.36-4.69-.29-6.5-1.8-4.43-3.63-3.6-8.29-.3-12.28Z"/>
  <path class="cls-23" d="M357.43,61.72c3.29-1.07,6.27-1.88,9.73-1.72-1.84,3.11-3.56,5.18-3.47,8.78-2.85-.8-8.27-3.17-9.48-5.9l.08-.38,3.14-.78Z"/>
  <path class="cls-19" d="M371.59,61.65c7.43,3.78,14.81,7.66,22.14,11.62-2.59-.02-16.07.55-17.18,2.28-3.46-4.3-7.56-3.91-12.54-3.35.23-1.41.26-1.2.87-2.56,2.44-1.69,4.89-5.49,6.71-7.99Z"/>
  <path class="cls-17" d="M362.57,104.35c5.74,4.33,11.44,8.72,17.11,13.15,3.66-.25,7.7.2,11.39.49-3.91.65-7.85,1.07-11.79,1.52-3.76-1.33-11.35-6.98-16.49-9.47l-5.2,3.19c.45-.68.9-1.37,1.34-2.06-.23-1.66.09-.96-.88-2.22-2.29.23-3.61,3.3-7.46,4.27,3.66-3.19,7.72-6.5,11.97-8.87Z"/>
  <path class="cls-22" d="M345.84,135.67h.34c1.58,2.6,3.66,7.86,4.74,10.85,7.61-.87,18.67-4.5,26.82-5.36,1.9-.2,11.21-1.6,12.28-2.17,1.23.69,3.29,1.94,4.52,2.37l-.24.71c1.29,1.28,11.93,13.9,12.1,14.63l-1.33.12c-7,5.83-18.31,12.27-26.5,17.34-12.15,7.53-25.86,17.62-38.12,24.49-2.38-7.07-4.82-14.11-7.33-21.14l-1.65-4.65c-1.09-2.39-2.51-8.48-3.22-11.32,5.55-1.95,15.04-6.85,20.47-9.51-.96-1.81-1.68-3.43-2.5-5.29-2.09-3.32-2.49-3.5-6.37-4.2-.09-.65.06-1.13.16-1.82,1.27-1.14,2.76-.99,4.96-1.72,1.26-1.45.88-.88.87-3.32Z"/>
  <path class="cls-18" d="M390.02,138.99c1.23.69,3.29,1.94,4.52,2.37l-.24.71c1.29,1.28,11.93,13.9,12.1,14.63l-1.33.12c-4.86-.3-49.29-1.12-49.71-1.33-.53-.89-.95-1.5-1.65-2.25l-1.06-1.81c-.28-1.13-1.29-3.7-1.72-4.91,7.61-.87,18.67-4.5,26.82-5.36,1.9-.2,11.21-1.6,12.28-2.17Z"/>
  <path class="cls-16" d="M390.02,138.99c1.23.69,3.29,1.94,4.52,2.37l-.24.71c-8.49,3.99-31.92,5.84-41.65,9.35-.28-1.13-1.29-3.7-1.72-4.91,7.61-.87,18.67-4.5,26.82-5.36,1.9-.2,11.21-1.6,12.28-2.17Z"/>
  <path class="cls-22" d="M348.73,152.03l9.74,19.98c-6.1,1.55-22.14-.5-27,.85-1.09-2.39-2.51-8.48-3.22-11.32,5.55-1.95,15.04-6.85,20.47-9.51Z"/>
  <path class="cls-17" d="M345.84,135.67h.34c1.58,2.6,3.66,7.86,4.74,10.85.43,1.21,1.45,3.78,1.72,4.91l1.06,1.81c.59,4.15,4.56,13.78,7.5,16.95,1.61,1.74,5.44,4.01,5.99,5.42-.77-.04-1.05-.01-1.81-.18-2.31-1.22-4.51-2.45-6.92-3.42l-9.74-19.98c-.96-1.81-1.68-3.43-2.5-5.29-2.09-3.32-2.49-3.5-6.37-4.2-.09-.65.06-1.13.16-1.82,1.27-1.14,2.76-.99,4.96-1.72,1.26-1.45.88-.88.87-3.32Z"/>
  <path class="cls-16" d="M358.47,172.01c2.42.98,4.62,2.21,6.92,3.42-10.76.84-21.25,1.12-32.27,2.08l-1.65-4.65c4.86-1.34,20.89.7,27-.85Z"/>
  <path class="cls-23" d="M298.52,127.98c1.94,1.19,7.89,5.36,9.45,5.55.51,1.4,7.98,6.47,10.25,8.75-7.9,7.38-20.74,20.2-27.41,28.75-5.17-5.5-12.76-14.85-18.01-19.47,1.07-1.45,4.65-4.54,6.12-6.08,4.07-3.97,7.63-8.56,11.64-12.58,1.94-1.94,5.53-3.12,7.96-4.93Z"/>
  <path class="cls-18" d="M359.6,120.2c1.64-.58,2.09-1.1,3.75-.18,3.9,2.15,7.75,5.28,11.32,7.95,5.02,3.8,10.14,7.47,15.35,11.02-1.06.57-10.38,1.97-12.28,2.17-8.15.85-19.21,4.49-26.82,5.36-1.07-2.99-3.15-8.25-4.74-10.85,3.27-4.71,9.14-6.82,13.42-15.48Z"/>
  <path class="cls-16" d="M328.26,161.54c-.82-4.96-4.12-17.87-2.45-21.94,2.54-1.49,5.1,1.93,7.86,2.75,1.36.4,2.97.3,4.38.26l.7-.02,1.1-.04c3.88.7,4.28.89,6.37,4.2.83,1.86,1.55,3.48,2.5,5.29-5.43,2.66-14.93,7.56-20.47,9.51Z"/>
  <path class="cls-18" d="M339.85,142.54c3.88.7,4.28.89,6.37,4.2-1.91,1.66-12.35,7.48-15.42,9.41l1.21-2.98c1.44-3.49,3.37-9.2,6.74-10.6l1.1-.04Z"/>
  <path class="cls-23" d="M338.05,87.83l.74-6.79c.3,3.61.26,3.96,3.24,5.92l2.47,1.64c.5,3.44,4.78,15.24,4.57,16.43-2.65.34-20.67-11.14-23.06-13.02-.81-.62-1.57-1.31-2.28-2.04,1.03-.45,12.55-1.87,14.33-2.13Z"/>
  <path class="cls-16" d="M337.22,125.52c.75.78,2.11,2.19,3.1,2.51,4.57,1.5,15.23-5.57,19.28-7.83-4.28,8.65-10.15,10.77-13.42,15.48h-.34c-4.08-.15-13.1.78-14.12-4.02.95-3,3.02-4.19,5.5-6.13Z"/>
  <path class="cls-16" d="M320.39,166.19c.93,4.78,2.17,5.16,6.65,7.13l.9-.26,2.06,6.25c-6.44-.33-9.91-.43-16.04-2.13,2.41-3.82,4.41-6.92,6.43-10.99Z"/>
  <path class="cls-22" d="M319.36,147.62c2.04,5.06,7.07,20.26,8.58,25.44l-.9.26c-4.48-1.97-5.72-2.35-6.65-7.13.54-5.46-1.39-12.1-1.03-18.57Z"/>
  <path class="cls-16" d="M405.07,156.82l1.33-.12.43.37c-3.75,9.97-8.72,21.04-12.85,31l-16.94,41.73c-5.79,14.13-13.08,34.43-19.56,47.81l-.28.25c-1.93,4.69-5.06,13.01-7.21,17.28-17.99-.82-41.65.16-59.9.25-18.66.09-40.16-.82-58.29-.17-2.21-3.27-8.36-18.06-10.06-22.28l.24-.94c2.48-3.63,46.02-28.68,52.72-33,14.43-9.29,32.32-19.88,47.09-29.34,4.85-3.1,11.24-6.17,16.33-9.53l3.86,11.51c-.19-3.77-.28-9.5-1.51-13,12.26-6.87,25.97-16.96,38.12-24.49,8.19-5.07,19.5-11.51,26.5-17.34Z"/>
  <path class="cls-2" d="M221.97,272c4.56.74,13.33.89,18.31,1.1l32.77,1.3,84.15,3.48c-1.93,4.69-5.06,13.01-7.21,17.28-17.99-.82-41.65.16-59.9.25-18.66.09-40.16-.82-58.29-.17-2.21-3.27-8.36-18.06-10.06-22.28l.24-.94Z"/>
  <path class="cls-16" d="M264.19,146.24c3.8.81,6.22,4.16,8.62,5.33,5.25,4.62,12.84,13.97,18.01,19.47,2.17,3.08,12.68,11.91,15.96,15.53l1.02-.82v1.32c.49.9.88,1.72,1.33,2.65-.4,3.11-1.8,6.45-3.45,9.12-14.2,22.89-28.91,27.97-53.1,34.63-6.72-10.46-11.87-23.89-6.87-36.09,2.81-6.87,7.24-11.6,12.03-17.11-.35-1.4-.67-3,0-4.29.79-8.36,4.66-20.68,6.47-29.72Z"/>
  <path class="cls-20" d="M264.19,146.24c3.8.81,6.22,4.16,8.62,5.33,5.25,4.62,12.84,13.97,18.01,19.47,2.17,3.08,12.68,11.91,15.96,15.53-13.08,12.54-24.19,13.34-40.43,18.96-2.3-6.11-8.32-23.76-8.62-29.57.79-8.36,4.66-20.68,6.47-29.72Z"/>
  <path class="cls-17" d="M278.92,117.75c6.21,3.47,13.24,6.94,19.6,10.23-2.43,1.81-6.02,2.99-7.96,4.93-4.01,4.01-7.56,8.61-11.64,12.58-1.47,1.54-5.06,4.63-6.12,6.08-2.4-1.17-4.82-4.52-8.62-5.33.76-1.53,8.83-5.78,10.94-7.04l3.79-21.45Z"/>
  <path class="cls-22" d="M283.78,128.81c1.52.42,3.4,1.08,4.3,2.37-.2,1.42-.28,1.04-1.84,2.21-1.49.88-2.48,1.73-3.93,1.38-.33-1.56.89-4.3,1.47-5.96Z"/>
  <path class="cls-1" d="M369.33,12.34c-.02,1.64-.12,1.97-.65,3.44,1.19.79,1.45.52,3.13.59-4.1,3.55-8.16,7.31-12.28,10.77-2.27,6.29-2.15,27.29-2.09,34.58l-3.14.78c-1.28-2.24-1.01-29.91-.72-34.26,1.36-4.49,7.8-6.69,8.93-11.25,2.55-.47,4.8-2.88,6.83-4.65Z"/>
  <path class="cls-24" d="M334.32,26.91c12.53-8.57,12.94-7.86,28.17-9.92-1.13,4.56-7.57,6.76-8.93,11.25.1-1.53-.09-1.74-.88-3.15-4.47-7.98-12.99,3.21-18.36,1.82Z"/>
  <path class="cls-16" d="M179.67,165.24c3.03,3.19,14.15,35.15,16.19,40.68,6.24,16.53,12.57,33.03,18.98,49.49,1.36,3.53,5.35,14.72,6.88,17.53,1.7,4.22,7.85,19.01,10.06,22.28-4.79,10.59-42.5,65.18-42.94,69.86l-.49-.17-.36.18c-4.94-.9-24.74-.05-30.64.1l-56.14,1.38c-10.44.27-25.64,1.08-35.78.26,3.63-7.01,7.21-16.6,10.15-23.97,4.24-10.33,8.37-20.7,12.4-31.11,2.84-7.41,7.17-20.52,11.35-26.86,1.45-2.19,9.93-9.58,12.25-11.65,6.6-5.8,13.11-11.71,19.52-17.72,7.74-6.89,11.75-17.87,16.52-27.12,7.8-15.09,15.49-30.23,23.07-45.43,2.36-4.8,6.29-13.71,8.96-17.74Z"/>
  <path class="cls-25" d="M65.44,366.84c3.63-7.01,7.21-16.6,10.15-23.97,4.24-10.33,8.37-20.7,12.4-31.11,2.84-7.41,7.17-20.52,11.35-26.86,1.45-2.19,9.93-9.58,12.25-11.65,6.6-5.8,13.11-11.71,19.52-17.72l5.86-.12c3.71,5.39,7.54,14.46,10.4,20.72l12.22,26.87c7.68,17.33,15.96,34.42,23.7,51.73,1.12,2.5,4.51,8.07,5.05,10.2l-.36.18c-4.94-.9-24.74-.05-30.64.1l-56.14,1.38c-10.44.27-25.64,1.08-35.78.26Z"/>
  <path class="cls-16" d="M65.44,366.84c10.14.82,25.34.01,35.78-.26l56.14-1.38c5.89-.15,25.7-1,30.64-.1l.36-.18.49.17.19,1.52-.62.46c.05,6.18,1.05,40.28,2.86,43.26-2.63,4.99-5.36,9.93-8.18,14.83-5.45.85-13.08,1.91-18.59,2.13-6.44,7.05-13.11,16.06-19.2,23.48-2.27,2.76-2.83,14.88-4.02,19.47-2.62.06-4.6.05-7.23-.06-4.02.44-10.68.48-14.75.14-11.09-.92-22-.8-33.11-.83-22.15.31-44.38-.16-66.54,0-6.82.05-12.89.96-19.65,1.66,4.93-8.94,14.84-23.52,20.68-32.92,14.54-23.49,29.22-46.89,44.05-70.21l.72-1.18Z"/>
  <path class="cls-25" d="M64.72,368.02c3.44,2.21,13.06,37.85,15.09,44.67,5.46,18.41,11.86,37.61,16.43,56.2-3.36.13-6.71.33-10.05.6-22.15.31-44.38-.16-66.54,0-6.82.05-12.89.96-19.65,1.66,4.93-8.94,14.84-23.52,20.68-32.92,14.54-23.49,29.22-46.89,44.05-70.21Z"/>
  <path class="cls-22" d="M188.35,364.93l.49.17.19,1.52-.62.46c.05,6.18,1.05,40.28,2.86,43.26-2.63,4.99-5.36,9.93-8.18,14.83-5.45.85-13.08,1.91-18.59,2.13-6.44,7.05-13.11,16.06-19.2,23.48-2.27,2.76-2.83,14.88-4.02,19.47-2.62.06-4.6.05-7.23-.06-1.84-.26-4.77-.21-6.71-.23,2.98-4.55,5.69-9.17,8.47-13.83,17.85-30,34.47-60.94,52.19-91l.36-.18Z"/>
  <path class="cls-6" d="M231.79,295.23c18.13-.65,39.63.25,58.29.17,18.25-.09,41.91-1.06,59.9-.25,3.77,8.55,10.65,18.56,15,27.66-13.24-.31-27.23-.07-40.53-.04-14.63-.06-29.25,0-43.88.16-6.88,13.18-13.2,26.61-19.53,40.06-1.63,3.46-8.92,17.49-9.45,20.33-.56-.61-52.81-14.39-56.8-15.81-1.14-.41-4.05-.55-5.38-.44l-.39-.46-.19-1.52c.44-4.68,38.16-59.27,42.94-69.86Z"/>
  <path class="cls-25" d="M191.27,410.33c-1.81-2.98-2.8-37.08-2.86-43.26l.62-.46.39.46c1.32-.11,4.23.04,5.38.44,3.99,1.42,56.24,15.21,56.8,15.81,1.67,7.4,3.34,15.17,5.9,22.31l3.05,1.56,2.11,1.32.76.49c.81,4.13-1.25,14.51-2.44,18.67-2.07-3.37-3.45-5.54-6.17-8.46-2.62-2.96-4.33-5.04-6.66-8.23-7.22,1.83-15.79,6.19-22.08,6.95-3.58,2.91-2.57-.32-6.11,1.47-1.19,1.79-1.78,3.2-2.68,5.14l-.93,1.29c-.41.61-2.13,3.12-2.32,3.63-1.01,1.72-1.99,3.45-3.13,5.08-2.47-3.57-4.56-6.57-7.32-9.95-3.54-4.2-8.53-10.63-12.31-14.28Z"/>
  <path class="cls-26" d="M191.27,410.33c-1.81-2.98-2.8-37.08-2.86-43.26l.62-.46.39.46c5.06,12.13,9.55,25.07,14.55,37.38,2.42,5.95,8.47,19.54,10.05,25.02-1.01,1.72-1.99,3.45-3.13,5.08-2.47-3.57-4.56-6.57-7.32-9.95-3.54-4.2-8.53-10.63-12.31-14.28Z"/>
  <path class="cls-23" d="M242.62,402.04c4.81,0,10.31,2.68,14.88,3.59l3.05,1.56,2.11,1.32.76.49c.81,4.13-1.25,14.51-2.44,18.67-2.07-3.37-3.45-5.54-6.17-8.46-2.62-2.96-4.33-5.04-6.66-8.23-7.22,1.83-15.79,6.19-22.08,6.95,5.27-5.45,11.1-9.83,16.55-15.89Z"/>
  <path class="cls-19" d="M242.62,402.04c4.81,0,10.31,2.68,14.88,3.59l3.05,1.56,2.11,1.32c-3.13,1.34-10.92,1.78-14.64,2.08-1.82-4.38-2.27-4.77-5.4-8.56Z"/>
  <path class="cls-23" d="M191.27,410.33c3.78,3.65,8.77,10.08,12.31,14.28,2.76,3.38,4.85,6.38,7.32,9.95-3.9,2.33-8.19,11.93-10.88,16.35-8.3,2.89-16.11,5.13-24.49,8.24-2.08-7.54-6.7-26.43-11.03-31.86,5.51-.22,13.14-1.28,18.59-2.13,2.82-4.89,5.54-9.83,8.18-14.83Z"/>
  <path class="cls-20" d="M191.27,410.33c3.78,3.65,8.77,10.08,12.31,14.28l-.33,1.2c-2.93.51-9.75-2.53-12.24-2.39-2.08.11-4.2,2.77-7.91,1.74,2.82-4.89,5.54-9.83,8.18-14.83Z"/>
  <path class="cls-20" d="M260.38,403.98c3.72-.03,18.36-.43,21.37.44.89.9.68.5.97,1.72,1.59,7.22,7.86,13.93,14.81,5.9.55-.64,1.02-4.47,1.14-5.57,5.57.67,11.26,3.73,16.91,4.71l1.24.98c-.49,3.77-20.64,13.63-24.86,14.64-4.9,1.18-13.2-1.45-18.07-2.65-4.99-1.23-8.28-2.49-10.79,3.07-2.37,2.54-8.09,9.14-10.44,11.14l-.42-.68c2.5-2.61,5.39-5.65,7.78-8.34,1.69-1.9-4.4-7.22-5.22-10.14,2.72,2.92,4.11,5.09,6.17,8.46,1.18-4.15,3.25-14.53,2.44-18.67l-.76-.49-2.11-1.32-.17-3.21Z"/>
  <path class="cls-25" d="M245.37,447.32c7.32-.78,14.64-1.52,21.97-2.21,4.13,8.2,8.2,15.34,12.75,23.31-11.31-.26-21.1.11-32.31.68-1.69-2.66-2.21-17.63-2.4-21.78Z"/>
  <path class="cls-16" d="M225.93,446.93c1.61,2.03,3.94,5.14,5.68,6.92,3,.13,6.24.21,9.22.41,1.2,4.97,1.92,9.4,2.75,14.43-5.38.2-10.76.31-16.14.35.38-1.96-4.85-13.36-5.97-15.94,1.17-2.41,2.57-4.26,4.45-6.18Z"/>
  <path class="cls-17" d="M269.18,389.4l10.32-.91c-1.34,6.37,7.2,6.23,9.26,12.16-3.61.65-4.51,1.99-6.04,5.5-.3-1.22-.09-.82-.97-1.72-3.01-.88-17.66-.48-21.37-.44,1.44-4.98,5.66-10.56,8.8-14.58Z"/>
  <path class="cls-19" d="M292.26,389.55c1.26-1.29,2.71-2.6,4.04-3.84l.34,1.01c-2,3.06-4.36,5.04-6.67,7.81,2.14-1.34,2.98-1.73,4.73-3.63l2.15.07c.06,4.81,14.9,16.04,18.74,20.22-5.65-.98-11.35-4.04-16.91-4.71-4.15-4.36-4.14-4.07-9.91-5.83-2.07-5.93-10.61-5.79-9.26-12.16l.39-.02c1.08,1.27.41.9,2.06,1.18,1.58-1.35,1.01-.5,1.46-2.82.31,1.44.06.95.92,2.09,2.3.91,5.3.62,7.93.64Z"/>
  <path class="cls-26" d="M213.82,450.19l4.86,6.47,2.8-3.55c1.12,2.58,6.36,13.98,5.97,15.94-5.34-.04-14.19-.33-19.24.13-.32-3.59,4.23-15.21,5.6-18.99Z"/>
  <path class="cls-23" d="M217.28,424.55c3.66,1.68,13.77,1.42,18.66,2.23-5.68,5.24-10.57,9.16-17.25,13.14-.4-4.27-.71-10.25-2.34-14.07l.93-1.29Z"/>
  <path class="cls-25" d="M263.1,427.22c.96,2.42,1.61,5.75,2.22,8.34-2.28.58-10.94,2.91-12.66,2.81,2.34-2.01,8.07-8.61,10.44-11.14Z"/>
  <path class="cls-25" d="M239.16,441.13c1.4-.22,2.04.1,3.18.73.64,1.49.58.71-.07,2.41-1.24,1.21-2.01,1.14-3.73,1.42-1.93.14-2.23.09-3.76-.85-.64-1.3-.53-.59,0-2.22,1.21-1.31,2.53-1.23,4.37-1.5Z"/>
  <path class="cls-16" d="M397.71,383.2c12.54,2.63,90.85,9.47,94.46,11.9l.2.1.39.61c2.62,8.58,22.33,71.81,21.78,74.97l-.51.74c-26.05-.72-55.15-.12-81.47-.13-16.24.21-32.5-.81-48.71.74-4.02.39-19.37.82-21.82-1.07l-.04-2.58c3.55-4.18,33.06-76.54,35.72-85.27Z"/>
  <path class="cls-18" d="M492.17,395.1l.2.1.39.61c2.62,8.58,22.33,71.81,21.78,74.97l-.51.74c-26.05-.72-55.15-.12-81.47-.13l-.23-.67c3.29-4.92,10.58-13.37,14.5-18.27,10.27-13,20.64-25.92,31.11-38.77,2.87-3.57,12.57-15.22,14.24-18.57Z"/>
  <path class="cls-26" d="M556.73,36.01c2.48,1.89,6.22,6.02,8.5,8.42,3.23,3.4,7.96,7.4,10.92,10.78,5.85,6.69,9.54,11.49,16.37,17.43,7.9,3.7,22.06,7.04,29.14,10.97-.61,6.03-.59,14.24-.71,20.43l-.59,38.68c-.06,2.8.04,15.1-.41,16.72-7.91.55-21.62.05-29.85-.11l-50.91-1.1c-3.06-10.16-8.69-23.3-12.37-33.66-3.69-10.68-7.51-21.32-11.45-31.92-1.84-4.94-4.23-11.92-6.54-16.49l.9-.19c5.83-2.85,42.82-34.57,47-39.97Z"/>
  <path class="cls-24" d="M556.73,36.01c2.48,1.89,6.22,6.02,8.5,8.42,3.23,3.4,7.96,7.4,10.92,10.78,5.85,6.69,9.54,11.49,16.37,17.43-.03,14.48,2.36,28.92,2.16,43.17-25.34-11.91-50.92-23.22-76.13-35.39-3.07-1.48-5.81-2.74-8.81-4.43,5.83-2.85,42.82-34.57,47-39.97Z"/>
  <path class="cls-5" d="M375.39,14.85c5.09-1.16,11.13-1.72,16.4-2.47l27.99-4.19,33.25-5.06c2.22-.35,20.66-3.57,21.91-3.07,26.96,10.69,54.71,24.06,81.44,35.72.12.08.24.16.36.24-4.18,5.4-41.17,37.12-47,39.97l-.9.19c-3.51-.61-10.36-2.93-14.01-4.05l-25.37-7.78-31.34-9.42c-4.1-1.23-13.85-3.88-17.4-5.55l-1.03-.7c-13.13,1.95-32.29,6.78-45.82,9.65-.51.74-1.89,2.63-2.28,3.33-1.82,2.5-4.26,6.3-6.71,7.99l-1.2-.86c-.08-3.6,1.63-5.67,3.47-8.78-3.46-.16-6.44.65-9.73,1.72-.07-7.29-.19-28.29,2.09-34.58,4.12-3.46,8.18-7.22,12.28-10.77.95-.51,2.54-1.1,3.59-1.52Z"/>
  <path class="cls-2" d="M359.52,27.14c4.2,1.69,20.26,7.84,23.29,9.72-4,3.11-13.94,18.88-15.65,23.14-3.46-.16-6.44.65-9.73,1.72-.07-7.29-.19-28.29,2.09-34.58Z"/>
  <path class="cls-2" d="M393.4,38.83c3.63,1.34,24.29,9.49,26.29,9.83-13.13,1.95-32.29,6.78-45.82,9.65,3.03-4.85,7.56-12.37,10.95-16.68,2.5-.97,5.93-1.92,8.58-2.8Z"/>
  <path class="cls-1" d="M382.81,36.86c5.91-1.55,21.27-7.04,26.04-6.31l.25.65c-3.54,3.77-11.09,5.05-15.7,7.63-2.65.89-6.08,1.83-8.58,2.8-3.4,4.31-7.92,11.83-10.95,16.68-.51.74-1.89,2.63-2.28,3.33-1.82,2.5-4.26,6.3-6.71,7.99l-1.2-.86c-.08-3.6,1.63-5.67,3.47-8.78,1.71-4.26,11.65-20.04,15.65-23.14Z"/>
  <path class="cls-3" d="M588.25,359.43c7.14,1.58,14.25,2.34,21.52,2.99,5.65,5.49,11.14,11.15,16.45,16.97,2.83,2.86,3.48,4.01,7.35,4.95l.93-.42c.27-2.01-.36-2.71-1.6-4.37,1.92-1.57,3.67-1.46,6.08-1.26,1.32.31,1.43.49,2.68.11,2.76-.65,11.27.74,14.38,1.36,1.39,2.45,4.66,10.26,5.75,11.17l.65,2.37c-.24,1.79-.78,4-.2,5.63l.52.43c2.93.25,11.65,2.41,14.26,3.73.88,2.46,7.08,14.2,8.63,15.7l1.62,1.72c-1.24,1.14-3.95,9.17-4.43,11.09.41.7.49.92,1.03,1.53,1.24,2.21,3.13,3.65,5.08,5.31,1.84-.41,2.57-.76,4.36-.19,1.09.96,1.16.92,1.83,2.17-3.16,6.47-5.04,7-11.51,10.15-1.76,5.63-3.21,13.65-4.15,19.49-.18,11.16-2.77,15.24-11.93,21.94,3.72-11.26,6.8-7.72,8.41-21.47l-21.18-.14c-4.6-.42-10.83-.29-15.56-.33-2.47,2.92-8.43,8.01-12.35,7.72l-.33-.75c1.37-2.92,3.77-4.6,6.26-6.54-4.93-.3-9.98-.23-14.93-.23l-2.74-.32c-2.48-2.25-6.14-9.76-7.91-12.92-8.17-14.61-15.38-29.76-23.56-44.36-1.49-2.67-2.99-5.59-4.79-8.04,1.92-13.05,6.84-31.19,9.37-45.19Z"/>
  <path class="cls-25" d="M676.16,440.5c2.18-3.72,3.16-6.64,7.71-7.35,1.24,2.21,3.13,3.65,5.08,5.31,1.84-.41,2.57-.76,4.36-.19,1.09.96,1.16.92,1.83,2.17-3.16,6.47-5.04,7-11.51,10.15-1.76,5.63-3.21,13.65-4.15,19.49-.18,11.16-2.77,15.24-11.93,21.94,3.72-11.26,6.8-7.72,8.41-21.47l-21.18-.14c1.74-5.07,2.58-26.73,2.86-32.97,6.14,1.19,12.32,2.21,18.52,3.06Z"/>
  <path class="cls-17" d="M688.95,438.47c1.84-.41,2.57-.76,4.36-.19,1.09.96,1.16.92,1.83,2.17-3.16,6.47-5.04,7-11.51,10.15-1.76,5.63-3.21,13.65-4.15,19.49-.18,11.16-2.77,15.24-11.93,21.94,3.72-11.26,6.8-7.72,8.41-21.47.53-3.47,1.14-23.57,2.16-26.8.07-.22,8.59-3.76,10.39-4.99l.43-.3Z"/>
  <path class="cls-20" d="M637.67,388.5c1.21,1.51,2.15,2.99,3.21,4.59l.85-.42c6.31,6.07,9.39,11.58,13.34,19.22-8.42,2.59-14.98,3.91-23.77,4.86-4.27-2.64-23.01-13.4-24.09-17.82.62-1.04.17-.75,1.25-1.06,5.78-1.62,10.86-3.1,16.76-4.23,3.55-4.82,6.82-4.54,12.45-5.14Z"/>
  <path class="cls-12" d="M637.67,388.5c1.21,1.51,2.15,2.99,3.21,4.59-.88,3.37-1.85,7.05-5.17,8.66-7.56,3.68-10.74-1.37-10.49-8.12,3.55-4.82,6.82-4.54,12.45-5.14Z"/>
  <path class="cls-4" d="M632.9,379.56c1.92-1.57,3.67-1.46,6.08-1.26,1.32.31,1.43.49,2.68.11,2.76-.65,11.27.74,14.38,1.36,1.39,2.45,4.66,10.26,5.75,11.17l.65,2.37c-6.91-.04-13.81-.26-20.7-.65l-.85.42c-1.06-1.61-2-3.09-3.21-4.59-5.62.6-8.89.32-12.45,5.14-5.89,1.13-10.98,2.61-16.76,4.23,3.92-8.15,12.43-9.73,17.76-18.47,2.83,2.86,3.48,4.01,7.35,4.95l.93-.42c.27-2.01-.36-2.71-1.6-4.37Z"/>
  <path class="cls-25" d="M659.53,417.91c2.19,1.32,8.09,9.86,9.67,12.3l-.28.7c-3.23-1.27-7.11-2.97-10.55-3.08.18-3.06.32-7.06,1.16-9.91Z"/>
  <path class="cls-24" d="M492.76,395.81c3.88-2.23,74.25,8.42,86.12,8.82,1.8,2.45,3.3,5.38,4.79,8.04,8.18,14.6,15.39,29.75,23.56,44.36,1.77,3.17,5.43,10.67,7.91,12.92l2.74.32c-4.43,1.36-7.08,1.09-11.66,1.35-23.36,1.3-46.81.76-70.21.77-7.26,0-14.57-.92-21.98-.89l.51-.74c.55-3.16-19.16-66.38-21.78-74.97Z"/>
  <path class="cls-8" d="M369.33,12.34c1.38-1.62,3.21-2.91,4.9-4.24l2.6,2.15c.05.68.09.93.05,1.62-.78,1.21-1.3,1.65-1.49,2.97-1.04.43-2.64,1.01-3.59,1.52-1.68-.07-1.94.21-3.13-.59.54-1.47.63-1.8.65-3.44Z"/>
  <path class="cls-11" d="M374.23,8.11c4.96-2.74,8.7-4.27,13.42-7.58-3.55,3.71-7.35,7.55-10.76,11.35.03-.69,0-.93-.05-1.62l-2.6-2.15Z"/>
</svg>