<svg version="1.1" xmlns="http://www.w3.org/2000/svg" style="display: block;" viewBox="0 0 2048 2048" width="1024" height="1024" preserveAspectRatio="none">
<defs>
	<linearGradient id="Gradient1" gradientUnits="userSpaceOnUse" x1="1398.52" y1="1323.31" x2="1505.21" y2="1309.81">
		<stop class="stop0" offset="0" stop-opacity="1" stop-color="rgb(48,44,43)"/>
		<stop class="stop1" offset="1" stop-opacity="1" stop-color="rgb(89,90,91)"/>
	</linearGradient>
	<linearGradient id="Gradient2" gradientUnits="userSpaceOnUse" x1="1347.85" y1="1393.91" x2="1550.87" y2="1346.17">
		<stop class="stop0" offset="0" stop-opacity="1" stop-color="rgb(79,44,21)"/>
		<stop class="stop1" offset="1" stop-opacity="1" stop-color="rgb(41,41,42)"/>
	</linearGradient>
	<linearGradient id="Gradient3" gradientUnits="userSpaceOnUse" x1="933.355" y1="474.738" x2="1232.01" y2="665.129">
		<stop class="stop0" offset="0" stop-opacity="1" stop-color="rgb(229,192,151)"/>
		<stop class="stop1" offset="1" stop-opacity="1" stop-color="rgb(242,222,190)"/>
	</linearGradient>
	<linearGradient id="Gradient4" gradientUnits="userSpaceOnUse" x1="813.021" y1="1084.56" x2="574.785" y2="1326.06">
		<stop class="stop0" offset="0" stop-opacity="1" stop-color="rgb(98,66,41)"/>
		<stop class="stop1" offset="1" stop-opacity="1" stop-color="rgb(139,87,49)"/>
	</linearGradient>
	<linearGradient id="Gradient5" gradientUnits="userSpaceOnUse" x1="853.602" y1="702.871" x2="913.079" y2="631.072">
		<stop class="stop0" offset="0" stop-opacity="1" stop-color="rgb(31,30,30)"/>
		<stop class="stop1" offset="1" stop-opacity="1" stop-color="rgb(58,58,57)"/>
	</linearGradient>
	<linearGradient id="Gradient6" gradientUnits="userSpaceOnUse" x1="938.318" y1="1272.5" x2="411.497" y2="1496.72">
		<stop class="stop0" offset="0" stop-opacity="1" stop-color="rgb(77,45,23)"/>
		<stop class="stop1" offset="1" stop-opacity="1" stop-color="rgb(37,39,42)"/>
	</linearGradient>
</defs>
<path transform="translate(0,0)" fill="rgb(229,189,146)" d="M 1004.26 607.755 C 1011.7 611.268 1032.15 616.829 1040.75 619.402 L 1106.46 639.149 L 1159.66 655.459 C 1167.31 657.82 1181.68 662.674 1189.04 663.962 C 1193.89 673.535 1198.9 688.172 1202.75 698.539 C 1211.03 720.75 1219.03 743.061 1226.77 765.467 C 1234.48 787.176 1246.28 814.729 1252.7 836.041 L 1359.46 838.351 C 1376.72 838.682 1405.48 839.726 1422.06 838.582 C 1423 835.185 1422.8 809.373 1422.92 803.511 L 1424.16 722.401 C 1424.42 709.426 1424.38 692.216 1425.65 679.562 C 1433.95 685.582 1454.07 706.706 1462.17 714.79 C 1484.47 736.667 1506.63 758.686 1528.65 780.843 C 1538.56 790.681 1566.22 814.558 1572.46 824.258 C 1578.65 833.864 1592 861.269 1597.99 872.836 L 1651.73 977.257 L 1678.51 1028.97 C 1682.85 1037.31 1692.3 1056.54 1697.76 1062.89 C 1716.35 1077.08 1745.91 1100.07 1762.28 1116.05 C 1767.64 1121.28 1784.11 1164.63 1788.41 1175.4 C 1800.87 1206.57 1816.74 1241.31 1828.12 1272.88 C 1834.5 1285.74 1853.7 1313.19 1862.72 1326.79 C 1886.72 1362.45 1910.3 1398.4 1933.43 1434.63 C 1944.61 1451.96 1959.87 1473.99 1969 1491.93 C 1929.35 1492.33 1889.71 1492.48 1850.06 1492.39 C 1819.56 1492.42 1783.52 1493 1753.39 1491.21 C 1753.77 1496.83 1754.31 1503.43 1752.53 1508.8 C 1750.62 1509.58 1751.47 1509.63 1750.05 1509.23 C 1713.29 1512.14 1702.93 1516.33 1666.26 1505.91 C 1679 1539 1683.81 1526.96 1702.97 1547.69 L 1703.95 1548.76 C 1668.59 1536.88 1664.87 1540.41 1655.13 1504.49 C 1649.46 1499.67 1641.8 1494.26 1635.23 1490.77 C 1610.11 1489.06 1572.71 1490.05 1546.88 1490.01 C 1548.85 1477.76 1551.89 1460.94 1555.58 1449.14 C 1569.16 1442.52 1573.09 1441.41 1579.72 1427.85 C 1578.31 1425.22 1578.16 1425.32 1575.88 1423.3 C 1572.11 1422.1 1570.59 1422.83 1566.73 1423.7 C 1562.64 1420.21 1558.69 1417.2 1556.08 1412.56 C 1554.95 1411.28 1554.79 1410.83 1553.92 1409.36 C 1554.92 1405.33 1560.6 1388.5 1563.2 1386.1 L 1559.8 1382.49 C 1556.54 1379.35 1543.55 1354.72 1541.7 1349.57 C 1536.23 1346.79 1517.95 1342.26 1511.8 1341.74 L 1510.71 1340.84 C 1509.49 1337.42 1510.61 1332.79 1511.12 1329.03 L 1509.76 1324.05 C 1507.47 1322.13 1500.61 1305.75 1497.7 1300.62 C 1491.18 1299.33 1473.33 1296.41 1467.55 1297.77 C 1464.93 1298.56 1464.69 1298.19 1461.93 1297.53 C 1456.89 1297.1 1453.21 1296.88 1449.19 1300.17 C 1451.8 1303.66 1453.11 1305.12 1452.55 1309.34 L 1450.61 1310.22 C 1442.49 1308.23 1441.12 1305.83 1435.19 1299.83 C 1424.04 1287.64 1412.53 1275.77 1400.69 1264.25 C 1385.45 1262.88 1370.54 1261.28 1355.56 1257.97 C 1350.25 1287.33 1339.93 1325.38 1335.91 1352.74 C 1311.02 1351.9 1163.46 1329.57 1155.32 1334.24 L 1154.51 1332.97 L 1154.1 1332.76 C 1146.53 1327.66 982.307 1313.32 956.015 1307.81 L 887.382 1181.17 C 878.266 1162.1 863.829 1141.1 855.925 1123.17 C 860.447 1114.23 867.009 1096.77 871.049 1086.94 L 871.641 1086.41 C 885.228 1058.35 900.512 1015.78 912.661 986.145 L 948.179 898.639 C 956.845 877.744 967.269 854.524 975.128 833.623 C 977.648 828.159 983.963 771.392 984.634 762.708 C 988.599 711.428 1000.67 658.608 1004.26 607.755 z"/>
<path transform="translate(0,0)" fill="rgb(212,161,114)" d="M 1697.76 1062.89 C 1716.35 1077.08 1745.91 1100.07 1762.28 1116.05 C 1767.64 1121.28 1784.11 1164.63 1788.41 1175.4 C 1800.87 1206.57 1816.74 1241.31 1828.12 1272.88 C 1834.5 1285.74 1853.7 1313.19 1862.72 1326.79 C 1886.72 1362.45 1910.3 1398.4 1933.43 1434.63 C 1944.61 1451.96 1959.87 1473.99 1969 1491.93 C 1929.35 1492.33 1889.71 1492.48 1850.06 1492.39 C 1819.56 1492.42 1783.52 1493 1753.39 1491.21 C 1753.77 1496.83 1754.31 1503.43 1752.53 1508.8 C 1750.62 1509.58 1751.47 1509.63 1750.05 1509.23 C 1713.29 1512.14 1702.93 1516.33 1666.26 1505.91 C 1679 1539 1683.81 1526.96 1702.97 1547.69 L 1703.95 1548.76 C 1668.59 1536.88 1664.87 1540.41 1655.13 1504.49 C 1649.46 1499.67 1641.8 1494.26 1635.23 1490.77 C 1610.11 1489.06 1572.71 1490.05 1546.88 1490.01 C 1548.85 1477.76 1551.89 1460.94 1555.58 1449.14 C 1569.16 1442.52 1573.09 1441.41 1579.72 1427.85 C 1578.31 1425.22 1578.16 1425.32 1575.88 1423.3 C 1572.11 1422.1 1570.59 1422.83 1566.73 1423.7 C 1562.64 1420.21 1558.69 1417.2 1556.08 1412.56 C 1554.95 1411.28 1554.79 1410.83 1553.92 1409.36 C 1554.92 1405.33 1560.6 1388.5 1563.2 1386.1 L 1559.8 1382.49 C 1556.54 1379.35 1543.55 1354.72 1541.7 1349.57 C 1536.23 1346.79 1517.95 1342.26 1511.8 1341.74 L 1510.71 1340.84 C 1509.49 1337.42 1510.61 1332.79 1511.12 1329.03 L 1509.76 1324.05 C 1513.86 1315.39 1602.02 1263.16 1606.87 1254.07 C 1571.57 1238.09 1522.37 1212.94 1486.71 1199.24 C 1488.21 1196.51 1496.97 1171.43 1498.73 1166.57 C 1505.67 1147.39 1513.2 1128.31 1520.55 1109.24 C 1524.06 1100.14 1528.8 1084.54 1534.09 1076.98 C 1540.31 1073.29 1680.19 1064.89 1697.76 1062.89 z"/>
<path transform="translate(0,0)" fill="rgb(229,189,146)" d="M 1606.87 1254.07 L 1608.32 1253.35 C 1611.75 1257.54 1612.77 1259.19 1615.43 1263.93 C 1625.97 1265.65 1651.93 1285.68 1658.17 1294.73 C 1692.33 1344.26 1727.13 1393.35 1761.08 1443.04 C 1770.7 1457.12 1783.25 1471.44 1793.42 1485.33 C 1797.22 1456.94 1803.67 1424.66 1808.41 1396.04 L 1828.12 1272.88 C 1834.5 1285.74 1853.7 1313.19 1862.72 1326.79 C 1886.72 1362.45 1910.3 1398.4 1933.43 1434.63 C 1944.61 1451.96 1959.87 1473.99 1969 1491.93 C 1929.35 1492.33 1889.71 1492.48 1850.06 1492.39 C 1819.56 1492.42 1783.52 1493 1753.39 1491.21 C 1753.77 1496.83 1754.31 1503.43 1752.53 1508.8 C 1750.62 1509.58 1751.47 1509.63 1750.05 1509.23 C 1713.29 1512.14 1702.93 1516.33 1666.26 1505.91 C 1679 1539 1683.81 1526.96 1702.97 1547.69 L 1703.95 1548.76 C 1668.59 1536.88 1664.87 1540.41 1655.13 1504.49 C 1649.46 1499.67 1641.8 1494.26 1635.23 1490.77 C 1610.11 1489.06 1572.71 1490.05 1546.88 1490.01 C 1548.85 1477.76 1551.89 1460.94 1555.58 1449.14 C 1569.16 1442.52 1573.09 1441.41 1579.72 1427.85 C 1578.31 1425.22 1578.16 1425.32 1575.88 1423.3 C 1572.11 1422.1 1570.59 1422.83 1566.73 1423.7 C 1562.64 1420.21 1558.69 1417.2 1556.08 1412.56 C 1554.95 1411.28 1554.79 1410.83 1553.92 1409.36 C 1554.92 1405.33 1560.6 1388.5 1563.2 1386.1 L 1559.8 1382.49 C 1556.54 1379.35 1543.55 1354.72 1541.7 1349.57 C 1536.23 1346.79 1517.95 1342.26 1511.8 1341.74 L 1510.71 1340.84 C 1509.49 1337.42 1510.61 1332.79 1511.12 1329.03 L 1509.76 1324.05 C 1513.86 1315.39 1602.02 1263.16 1606.87 1254.07 z"/>
<path transform="translate(0,0)" fill="rgb(37,36,36)" d="M 1559.8 1382.49 C 1565.51 1380.75 1589.18 1379.43 1597.08 1378.64 C 1598.62 1380.74 1600.32 1382.53 1601.03 1384.88 C 1603.14 1388.78 1605.57 1394.38 1609.48 1396.33 L 1612.14 1394.28 C 1619.5 1396.93 1619.18 1398.44 1622.7 1405.36 C 1626.59 1413 1632.83 1432.68 1637.54 1438.74 C 1642.22 1439.42 1681.21 1454.24 1684.23 1456.91 C 1698.72 1469.76 1737.05 1492.7 1749.23 1505.57 L 1750.05 1509.23 C 1713.29 1512.14 1702.93 1516.33 1666.26 1505.91 C 1679 1539 1683.81 1526.96 1702.97 1547.69 L 1703.95 1548.76 C 1668.59 1536.88 1664.87 1540.41 1655.13 1504.49 C 1649.46 1499.67 1641.8 1494.26 1635.23 1490.77 C 1610.11 1489.06 1572.71 1490.05 1546.88 1490.01 C 1548.85 1477.76 1551.89 1460.94 1555.58 1449.14 C 1569.16 1442.52 1573.09 1441.41 1579.72 1427.85 C 1578.31 1425.22 1578.16 1425.32 1575.88 1423.3 C 1572.11 1422.1 1570.59 1422.83 1566.73 1423.7 C 1562.64 1420.21 1558.69 1417.2 1556.08 1412.56 C 1554.95 1411.28 1554.79 1410.83 1553.92 1409.36 C 1554.92 1405.33 1560.6 1388.5 1563.2 1386.1 L 1559.8 1382.49 z"/>
<path transform="translate(0,0)" fill="rgb(140,91,59)" d="M 1579.72 1427.85 C 1584.53 1435.19 1588.17 1440.52 1593.58 1447.38 L 1602.61 1435.68 C 1607.59 1449.23 1610.01 1460.16 1613.51 1474.11 C 1621.19 1481.74 1630.36 1485.96 1635.23 1490.77 C 1610.11 1489.06 1572.71 1490.05 1546.88 1490.01 C 1548.85 1477.76 1551.89 1460.94 1555.58 1449.14 C 1569.16 1442.52 1573.09 1441.41 1579.72 1427.85 z"/>
<path transform="translate(0,0)" fill="rgb(86,86,85)" d="M 1559.8 1382.49 C 1565.51 1380.75 1589.18 1379.43 1597.08 1378.64 C 1598.62 1380.74 1600.32 1382.53 1601.03 1384.88 C 1597.54 1392.96 1596.27 1401.28 1594.36 1409.9 C 1583.45 1402.68 1573.04 1394.72 1563.2 1386.1 L 1559.8 1382.49 z"/>
<path transform="translate(0,0)" fill="rgb(69,68,68)" d="M 1609.48 1396.33 L 1612.14 1394.28 C 1619.5 1396.93 1619.18 1398.44 1622.7 1405.36 C 1626.59 1413 1632.83 1432.68 1637.54 1438.74 C 1639.45 1443.73 1648.27 1463.72 1647.79 1467.55 L 1647.85 1467.54 C 1645.14 1467.8 1642.85 1465.34 1641.05 1463.4 C 1624.8 1445.82 1621.66 1419.62 1612.71 1398.24 C 1611.63 1397.6 1610.56 1396.97 1609.48 1396.33 z"/>
<path transform="translate(0,0)" fill="rgb(140,91,59)" d="M 1606.87 1254.07 L 1608.32 1253.35 C 1611.75 1257.54 1612.77 1259.19 1615.43 1263.93 C 1619.49 1273.95 1644.86 1350.29 1646.68 1352.94 C 1642.03 1361.29 1619.7 1386.2 1612.14 1394.28 L 1609.48 1396.33 C 1605.57 1394.38 1603.14 1388.78 1601.03 1384.88 C 1600.32 1382.53 1598.62 1380.74 1597.08 1378.64 C 1589.18 1379.43 1565.51 1380.75 1559.8 1382.49 C 1556.54 1379.35 1543.55 1354.72 1541.7 1349.57 C 1536.23 1346.79 1517.95 1342.26 1511.8 1341.74 L 1510.71 1340.84 C 1509.49 1337.42 1510.61 1332.79 1511.12 1329.03 L 1509.76 1324.05 C 1513.86 1315.39 1602.02 1263.16 1606.87 1254.07 z"/>
<path transform="translate(0,0)" fill="rgb(69,68,68)" d="M 1541.7 1349.57 C 1554.28 1353.57 1568.72 1357.66 1580.47 1363.35 C 1582.16 1364.16 1582 1364.1 1583.92 1363.9 C 1586.08 1368.25 1590.65 1374.4 1594.44 1377.49 L 1596.29 1377.82 L 1597.08 1378.64 C 1589.18 1379.43 1565.51 1380.75 1559.8 1382.49 C 1556.54 1379.35 1543.55 1354.72 1541.7 1349.57 z"/>
<path transform="translate(0,0)" fill="rgb(86,86,85)" d="M 1511.8 1341.74 C 1522.29 1338.3 1534.42 1335.88 1545.29 1333.43 C 1550.95 1337.09 1582.54 1359.85 1583.92 1363.9 C 1582 1364.1 1582.16 1364.16 1580.47 1363.35 C 1568.72 1357.66 1554.28 1353.57 1541.7 1349.57 C 1536.23 1346.79 1517.95 1342.26 1511.8 1341.74 z"/>
<path transform="translate(0,0)" fill="rgb(37,36,36)" d="M 1583.92 1363.9 C 1589.52 1363.3 1588.18 1362.66 1592.69 1364.68 C 1595.96 1368.25 1596.04 1373.03 1596.29 1377.82 L 1594.44 1377.49 C 1590.65 1374.4 1586.08 1368.25 1583.92 1363.9 z"/>
<path transform="translate(0,0)" fill="rgb(52,50,50)" d="M 1646.68 1352.94 L 1649.57 1351.39 C 1654.68 1353.52 1665.11 1375.47 1669.04 1381.65 C 1674.04 1386.6 1700.26 1387.42 1708.62 1388.81 C 1720.91 1403.99 1736.77 1423.78 1747.68 1440.13 C 1749.59 1442.89 1750.48 1443.84 1751.45 1447.12 C 1751.44 1451.91 1752.59 1487.51 1753.39 1491.21 C 1753.77 1496.83 1754.31 1503.43 1752.53 1508.8 C 1750.62 1509.58 1751.47 1509.63 1750.05 1509.23 L 1749.23 1505.57 C 1737.05 1492.7 1698.72 1469.76 1684.23 1456.91 C 1681.21 1454.24 1642.22 1439.42 1637.54 1438.74 C 1632.83 1432.68 1626.59 1413 1622.7 1405.36 C 1619.18 1398.44 1619.5 1396.93 1612.14 1394.28 C 1619.7 1386.2 1642.03 1361.29 1646.68 1352.94 z"/>
<path transform="translate(0,0)" fill="rgb(69,68,68)" d="M 1698.06 1406.01 C 1692.73 1404.45 1647.78 1384.4 1646.43 1380.83 C 1655.48 1377.9 1662.67 1384.37 1669.04 1381.65 C 1674.04 1386.6 1700.26 1387.42 1708.62 1388.81 C 1720.91 1403.99 1736.77 1423.78 1747.68 1440.13 C 1749.59 1442.89 1750.48 1443.84 1751.45 1447.12 C 1740.48 1449.91 1693.64 1455.1 1683.05 1454.75 C 1687.9 1438.82 1694.04 1421.91 1698.06 1406.01 z"/>
<path transform="translate(0,0)" fill="rgb(86,86,85)" d="M 1708.62 1388.81 C 1720.91 1403.99 1736.77 1423.78 1747.68 1440.13 C 1740.38 1438.18 1706.71 1412.76 1698.93 1406.72 C 1702.11 1400.72 1705.34 1394.75 1708.62 1388.81 z"/>
<path transform="translate(0,0)" fill="rgb(234,199,159)" d="M 1534.09 1076.98 C 1536.71 1085.87 1544.32 1101.39 1548.36 1110.74 L 1587.34 1201.86 C 1590.56 1209.31 1609.17 1248.7 1608.32 1253.35 L 1606.87 1254.07 C 1571.57 1238.09 1522.37 1212.94 1486.71 1199.24 C 1488.21 1196.51 1496.97 1171.43 1498.73 1166.57 C 1505.67 1147.39 1513.2 1128.31 1520.55 1109.24 C 1524.06 1100.14 1528.8 1084.54 1534.09 1076.98 z"/>
<path transform="translate(0,0)" fill="rgb(212,161,114)" d="M 1004.26 607.755 C 1011.7 611.268 1032.15 616.829 1040.75 619.402 L 1106.46 639.149 L 1159.66 655.459 C 1167.31 657.82 1181.68 662.674 1189.04 663.962 C 1193.89 673.535 1198.9 688.172 1202.75 698.539 C 1211.03 720.75 1219.03 743.061 1226.77 765.467 C 1234.48 787.176 1246.28 814.729 1252.7 836.041 C 1243.31 841.099 1221.8 856.781 1212.31 863.5 C 1202.15 870.692 1183.8 882.902 1174.87 890.314 C 1170.85 891.992 1171.99 890.63 1170.53 893.788 C 1168.06 916.928 1165.58 943.74 1161.57 966.423 C 1161.23 981.391 1183.63 1063.16 1188.73 1083.47 C 1172.01 1084.92 1148.09 1084.11 1130.66 1084.47 L 978.992 1086.07 C 958.418 1086.21 894.541 1089.51 877.996 1086.04 C 875.762 1086.32 873.881 1086.34 871.641 1086.41 C 885.228 1058.35 900.512 1015.78 912.661 986.145 L 948.179 898.639 C 956.845 877.744 967.269 854.524 975.128 833.623 C 977.648 828.159 983.963 771.392 984.634 762.708 C 988.599 711.428 1000.67 658.608 1004.26 607.755 z"/>
<path transform="translate(0,0)" fill="rgb(196,144,97)" d="M 1159.98 973.817 C 1160.57 972.7 1161.28 967.965 1161.57 966.423 C 1161.23 981.391 1183.63 1063.16 1188.73 1083.47 C 1172.01 1084.92 1148.09 1084.11 1130.66 1084.47 L 978.992 1086.07 C 958.418 1086.21 894.541 1089.51 877.996 1086.04 C 902.988 1074.39 943.838 1059.98 970.526 1049.53 C 1033.89 1024.82 1097.04 999.585 1159.98 973.817 z"/>
<path transform="translate(0,0)" fill="rgb(234,199,159)" d="M 977.427 831.955 C 990.035 837.196 1018.84 845.225 1032.95 849.616 L 1135.23 881.732 C 1144.77 884.683 1159.02 889.033 1169.07 891.694 C 1169.55 892.392 1170.04 893.09 1170.53 893.788 C 1168.06 916.928 1165.58 943.74 1161.57 966.423 C 1161.28 967.965 1160.57 972.7 1159.98 973.817 C 1123.94 949.088 1084.62 916.366 1049.95 889.368 C 1032.34 875.663 990.83 845.755 977.427 831.955 z"/>
<path transform="translate(0,0)" fill="rgb(184,131,90)" d="M 1188.73 1083.47 C 1195.96 1082.97 1204.71 1082.94 1211.99 1082.95 C 1251.34 1083.02 1291.26 1080.03 1330.54 1080.17 C 1327.28 1080.61 1324.04 1081.13 1320.76 1081.27 C 1329.93 1105.3 1334.7 1131.6 1341.7 1156.17 C 1344.44 1165.76 1358.09 1228.22 1362.17 1230.78 C 1359.65 1233.79 1358.01 1245.83 1357.6 1250 L 1358.87 1251.99 C 1349.79 1250.93 1336.25 1249.85 1327.14 1250.19 C 1337.3 1254.01 1344.88 1255.78 1355.56 1257.97 C 1350.25 1287.33 1339.93 1325.38 1335.91 1352.74 C 1311.02 1351.9 1163.46 1329.57 1155.32 1334.24 L 1154.51 1332.97 L 1154.1 1332.76 C 1146.53 1327.66 982.307 1313.32 956.015 1307.81 L 887.382 1181.17 C 878.266 1162.1 863.829 1141.1 855.925 1123.17 C 860.447 1114.23 867.009 1096.77 871.049 1086.94 L 871.641 1086.41 C 873.881 1086.34 875.762 1086.32 877.996 1086.04 C 894.541 1089.51 958.418 1086.21 978.992 1086.07 L 1130.66 1084.47 C 1148.09 1084.11 1172.01 1084.92 1188.73 1083.47 z"/>
<path transform="translate(0,0)" fill="rgb(212,161,114)" d="M 1154.51 1332.97 C 1171.41 1308.79 1317.08 1083.57 1320.76 1081.27 C 1329.93 1105.3 1334.7 1131.6 1341.7 1156.17 C 1344.44 1165.76 1358.09 1228.22 1362.17 1230.78 C 1359.65 1233.79 1358.01 1245.83 1357.6 1250 L 1358.87 1251.99 C 1349.79 1250.93 1336.25 1249.85 1327.14 1250.19 C 1337.3 1254.01 1344.88 1255.78 1355.56 1257.97 C 1350.25 1287.33 1339.93 1325.38 1335.91 1352.74 C 1311.02 1351.9 1163.46 1329.57 1155.32 1334.24 L 1154.51 1332.97 z"/>
<path transform="translate(0,0)" fill="rgb(68,43,27)" d="M 1252.7 836.041 L 1359.46 838.351 C 1376.72 838.682 1405.48 839.726 1422.06 838.582 C 1426.48 842.882 1438.75 863.595 1442.57 869.841 L 1478.69 928.973 C 1451.77 944.532 1407.81 956.883 1380.86 971.897 C 1381.07 991.327 1376.79 1019.51 1375.68 1039.42 C 1375.37 1044.98 1372.83 1074.3 1371.72 1079.21 C 1360.12 1080.42 1342.67 1080.09 1330.54 1080.17 C 1291.26 1080.03 1251.34 1083.02 1211.99 1082.95 C 1204.71 1082.94 1195.96 1082.97 1188.73 1083.47 C 1183.63 1063.16 1161.23 981.391 1161.57 966.423 C 1165.58 943.74 1168.06 916.928 1170.53 893.788 C 1171.99 890.63 1170.85 891.992 1174.87 890.314 C 1183.8 882.902 1202.15 870.692 1212.31 863.5 C 1221.8 856.781 1243.31 841.099 1252.7 836.041 z"/>
<path transform="translate(0,0)" fill="rgb(118,75,42)" d="M 1252.7 836.041 L 1359.46 838.351 C 1376.72 838.682 1405.48 839.726 1422.06 838.582 C 1426.48 842.882 1438.75 863.595 1442.57 869.841 L 1478.69 928.973 C 1451.77 944.532 1407.81 956.883 1380.86 971.897 C 1378.84 969.159 1376.36 963.846 1374.59 960.655 C 1361.92 937.712 1347.58 915.715 1334.54 892.997 C 1279.86 892.174 1229.69 893.372 1174.87 890.314 C 1183.8 882.902 1202.15 870.692 1212.31 863.5 C 1221.8 856.781 1243.31 841.099 1252.7 836.041 z"/>
<path transform="translate(0,0)" fill="rgb(140,91,59)" d="M 1478.69 928.973 C 1482.77 935.997 1499.92 984.262 1503.26 994.77 C 1511.48 1020.64 1524.44 1050.15 1532.41 1075.19 C 1479.81 1077.36 1424.61 1077.87 1371.72 1079.21 C 1372.83 1074.3 1375.37 1044.98 1375.68 1039.42 C 1376.79 1019.51 1381.07 991.327 1380.86 971.897 C 1407.81 956.883 1451.77 944.532 1478.69 928.973 z"/>
<path transform="translate(0,0)" fill="rgb(118,75,42)" d="M 1486.71 1199.24 C 1522.37 1212.94 1571.57 1238.09 1606.87 1254.07 C 1602.02 1263.16 1513.86 1315.39 1509.76 1324.05 C 1507.47 1322.13 1500.61 1305.75 1497.7 1300.62 C 1491.18 1299.33 1473.33 1296.41 1467.55 1297.77 C 1465.43 1276.81 1458.52 1244.07 1454.38 1222.82 L 1437.23 1213.14 C 1444.13 1209.59 1477.11 1201.67 1486.71 1199.24 z"/>
<path transform="translate(0,0)" fill="rgb(118,75,42)" d="M 1362.17 1230.78 C 1374.27 1227 1411.53 1217.54 1423.73 1216.27 C 1431.4 1220.22 1439.03 1224.24 1446.63 1228.32 C 1451.27 1251.49 1457.31 1274.23 1461.93 1297.53 C 1456.89 1297.1 1453.21 1296.88 1449.19 1300.17 C 1451.8 1303.66 1453.11 1305.12 1452.55 1309.34 L 1450.61 1310.22 C 1442.49 1308.23 1441.12 1305.83 1435.19 1299.83 C 1424.04 1287.64 1412.53 1275.77 1400.69 1264.25 C 1385.45 1262.88 1370.54 1261.28 1355.56 1257.97 C 1344.88 1255.78 1337.3 1254.01 1327.14 1250.19 C 1336.25 1249.85 1349.79 1250.93 1358.87 1251.99 L 1357.6 1250 C 1358.01 1245.83 1359.65 1233.79 1362.17 1230.78 z"/>
<path transform="translate(0,0)" fill="rgb(231,230,230)" d="M 1327.14 1250.19 C 1336.25 1249.85 1349.79 1250.93 1358.87 1251.99 C 1372.49 1251.81 1387.92 1254.79 1398.98 1254.6 C 1410.21 1255.47 1419.6 1269.47 1428.24 1278.06 C 1435.19 1285.37 1442.37 1292.76 1449.19 1300.17 C 1451.8 1303.66 1453.11 1305.12 1452.55 1309.34 L 1450.61 1310.22 C 1442.49 1308.23 1441.12 1305.83 1435.19 1299.83 C 1424.04 1287.64 1412.53 1275.77 1400.69 1264.25 C 1385.45 1262.88 1370.54 1261.28 1355.56 1257.97 C 1344.88 1255.78 1337.3 1254.01 1327.14 1250.19 z"/>
<path transform="translate(0,0)" fill="rgb(68,43,27)" d="M 1398.98 1254.6 L 1399.76 1252.72 C 1404.58 1251.92 1411.42 1251.33 1415.72 1250.21 C 1423.03 1257.14 1432.5 1267.38 1428.24 1278.06 C 1419.6 1269.47 1410.21 1255.47 1398.98 1254.6 z"/>
<path transform="translate(0,0)" fill="rgb(231,230,230)" d="M 1375.89 1186.06 C 1402.43 1190.29 1414.26 1198.99 1437.23 1213.14 L 1454.38 1222.82 C 1458.52 1244.07 1465.43 1276.81 1467.55 1297.77 C 1464.93 1298.56 1464.69 1298.19 1461.93 1297.53 C 1457.31 1274.23 1451.27 1251.49 1446.63 1228.32 C 1439.03 1224.24 1431.4 1220.22 1423.73 1216.27 C 1416.96 1215.37 1383.79 1191.46 1375.89 1186.06 z"/>
<path transform="translate(0,0)" fill="url(#Gradient6)" d="M 896.495 530.134 C 896.45 533.581 896.251 534.264 895.122 537.352 C 897.613 539.015 898.154 538.438 901.678 538.583 C 893.07 546.017 884.557 553.911 875.92 561.165 C 871.154 574.359 871.402 618.389 871.542 633.672 C 878.44 631.429 884.684 629.725 891.943 630.07 C 888.092 636.593 884.488 640.928 884.665 648.476 L 887.182 650.276 C 892.304 646.726 897.438 638.761 901.247 633.519 C 902.065 632.06 904.943 628.097 906.019 626.536 C 934.403 620.506 974.567 610.391 1002.11 606.292 L 1004.26 607.755 C 1000.67 658.608 988.599 711.428 984.634 762.708 C 983.963 771.392 977.648 828.159 975.128 833.623 C 967.269 854.524 956.845 877.744 948.179 898.639 L 912.661 986.145 C 900.512 1015.78 885.228 1058.35 871.641 1086.41 L 871.049 1086.94 C 867.009 1096.77 860.447 1114.23 855.925 1123.17 C 863.829 1141.1 878.266 1162.1 887.382 1181.17 L 956.015 1307.81 C 950.431 1326.1 888.557 1477.84 881.11 1486.61 C 828.965 1485.6 774.586 1486.88 722.012 1486.58 C 731.551 1508.76 740.706 1509.21 750.5 1524.97 C 748.587 1524.33 746.682 1523.67 744.786 1522.99 C 723.972 1515.49 718.178 1505.3 709.349 1486.51 C 685.624 1485.96 665.096 1486.74 641.589 1487.94 C 644.345 1493.9 643.357 1506.47 645.48 1512.12 C 650.597 1525.71 655.748 1531.2 659.612 1545.76 L 658.674 1544.98 L 657.128 1543.67 C 638.849 1528.27 633.26 1510.79 632.827 1487.1 C 621.552 1487.51 610.272 1487.75 598.99 1487.84 C 587.784 1487.76 569.239 1487.15 558.652 1488.11 C 552.786 1497.41 529.946 1503.92 522.576 1513.58 C 516.222 1521.91 513.573 1532.62 509.074 1541.85 C 502.848 1546.28 478.809 1558.41 472.164 1558.21 C 472.187 1556.12 472.088 1557.2 474.165 1555.17 C 489.828 1539.87 498.039 1537.59 507.88 1516.92 C 464.378 1528.09 454.47 1518.56 416.005 1516.59 C 415.989 1508.86 415.345 1497.08 418.264 1490.31 C 412.778 1490.44 408.622 1490.42 403.109 1490.18 C 394.687 1491.11 380.711 1491.19 372.185 1490.48 C 348.93 1488.55 326.061 1488.81 302.758 1488.74 C 256.313 1489.39 209.696 1488.41 163.232 1488.74 C 148.932 1488.85 136.208 1490.76 122.027 1492.23 C 132.355 1473.49 153.144 1442.91 165.389 1423.2 C 195.876 1373.94 226.663 1324.87 257.75 1275.98 L 259.258 1273.5 C 266.873 1258.8 274.368 1238.68 280.54 1223.23 C 289.422 1201.57 298.091 1179.83 306.547 1158 C 312.499 1142.46 321.578 1114.97 330.353 1101.68 C 333.396 1097.08 351.184 1081.59 356.051 1077.25 C 369.896 1065.09 383.543 1052.7 396.988 1040.09 C 413.229 1025.64 421.622 1002.62 431.63 983.217 C 447.983 951.58 464.106 919.825 479.999 887.954 C 484.951 877.893 493.194 859.213 498.792 850.747 C 512.886 839.194 549.155 821.459 566.285 811.901 C 574.756 807.175 583.841 802.683 590.846 795.839 C 600.196 786.704 606.274 772 612.462 760.617 C 622.581 742.003 633.147 723.613 643.413 705.076 C 650.622 692.059 657.36 677.282 666.517 665.616 C 676.257 653.207 802.478 573.646 823.09 560.685 C 849.367 542.709 850.225 544.195 882.169 539.883 C 887.526 538.901 892.231 533.838 896.495 530.134 z M 708.961 1318.84 C 711.221 1321.51 709.829 1320.72 713.281 1321.31 C 716.595 1318.48 715.396 1320.26 716.338 1315.39 C 721.49 1295.71 725.95 1275.84 729.709 1255.84 C 748.031 1246.71 766.581 1238.3 782.729 1225.6 C 786.554 1222.6 789.889 1220.78 794.25 1218.65 C 757.503 1225.59 752.405 1234.09 720.921 1251.05 L 712.431 1299.94 C 711.769 1303.77 710.045 1316.16 708.961 1318.84 z M 739.995 1323.93 L 744.503 1324.08 C 749.339 1320.94 761.855 1309.13 765.414 1304.7 C 769.488 1300.36 774.98 1295.5 779.434 1291.35 C 806.287 1291.01 833.331 1288.67 859.446 1282.11 C 831.46 1280.72 803.424 1280.62 775.429 1281.83 C 768.95 1287.81 762.505 1294.58 756.292 1300.89 C 752.703 1303.1 746.433 1309.77 743.363 1313.06 L 744.068 1315.18 C 739.865 1321.6 734.918 1325.74 730.086 1331.55 C 734.579 1328.75 736.334 1327.93 739.995 1323.93 z M 727.569 1344.38 C 720 1345.74 718.103 1348.56 714.9 1355.91 C 718.225 1371.06 731.381 1385.13 745.951 1368.28 C 747.11 1366.94 748.088 1358.91 748.344 1356.6 C 739.637 1347.46 739.656 1348.06 727.569 1344.38 z"/>
<path transform="translate(0,0)" fill="rgb(231,230,230)" fill-opacity="0.784314" d="M 727.569 1344.38 C 739.656 1348.06 739.637 1347.46 748.344 1356.6 C 748.088 1358.91 747.11 1366.94 745.951 1368.28 C 731.381 1385.13 718.225 1371.06 714.9 1355.91 C 718.103 1348.56 720 1345.74 727.569 1344.38 z"/>
<path transform="translate(0,0)" fill="rgb(231,230,230)" fill-opacity="0.372549" d="M 743.363 1313.06 C 746.433 1309.77 752.703 1303.1 756.292 1300.89 C 759.106 1302.36 761.861 1302.98 764.33 1304.73 L 765.414 1304.7 C 761.855 1309.13 749.339 1320.94 744.503 1324.08 L 739.995 1323.93 C 744.58 1319.65 746.848 1321.74 744.068 1315.18 L 743.363 1313.06 z"/>
<path transform="translate(0,0)" fill="rgb(231,230,230)" fill-opacity="0.145098" d="M 744.068 1315.18 C 746.848 1321.74 744.58 1319.65 739.995 1323.93 C 736.334 1327.93 734.579 1328.75 730.086 1331.55 C 734.918 1325.74 739.865 1321.6 744.068 1315.18 z"/>
<path transform="translate(0,0)" fill="rgb(184,131,90)" d="M 896.495 530.134 C 896.45 533.581 896.251 534.264 895.122 537.352 C 897.613 539.015 898.154 538.438 901.678 538.583 C 893.07 546.017 884.557 553.911 875.92 561.165 C 871.154 574.359 871.402 618.389 871.542 633.672 C 878.44 631.429 884.684 629.725 891.943 630.07 C 888.092 636.593 884.488 640.928 884.665 648.476 L 887.182 650.276 C 892.304 646.726 897.438 638.761 901.247 633.519 C 902.065 632.06 904.943 628.097 906.019 626.536 C 934.403 620.506 974.567 610.391 1002.11 606.292 L 1004.26 607.755 C 1000.67 658.608 988.599 711.428 984.634 762.708 C 983.963 771.392 977.648 828.159 975.128 833.623 C 967.269 854.524 956.845 877.744 948.179 898.639 L 912.661 986.145 C 900.512 1015.78 885.228 1058.35 871.641 1086.41 L 871.049 1086.94 C 867.009 1096.77 860.447 1114.23 855.925 1123.17 C 818.195 1121.46 768.59 1123.51 730.317 1123.69 C 691.178 1123.87 646.096 1121.97 608.084 1123.34 C 603.442 1116.48 590.546 1085.46 586.983 1076.61 C 583.773 1070.7 575.392 1047.24 572.549 1039.84 C 559.099 1005.31 545.829 970.719 532.741 936.056 C 528.461 924.445 505.139 857.428 498.792 850.747 C 512.886 839.194 549.155 821.459 566.285 811.901 C 574.756 807.175 583.841 802.683 590.846 795.839 C 600.196 786.704 606.274 772 612.462 760.617 C 622.581 742.003 633.147 723.613 643.413 705.076 C 650.622 692.059 657.36 677.282 666.517 665.616 C 676.257 653.207 802.478 573.646 823.09 560.685 C 849.367 542.709 850.225 544.195 882.169 539.883 C 887.526 538.901 892.231 533.838 896.495 530.134 z"/>
<path transform="translate(0,0)" fill="rgb(37,36,36)" d="M 1002.11 606.292 L 1004.26 607.755 C 1000.67 658.608 988.599 711.428 984.634 762.708 C 983.963 771.392 977.648 828.159 975.128 833.623 L 974.232 832.854 L 971.444 833.104 C 956.771 845.328 933.056 858.824 915.882 869.461 C 890.395 885.247 861.646 906.411 835.939 920.807 C 838.519 928.145 838.721 940.159 839.113 948.059 L 831.026 923.921 C 825.21 910.012 819.541 894.434 814.031 880.268 C 800.531 879.574 793.247 879.362 780.386 875.798 C 776.861 881.424 772.157 889.025 767.441 893.759 L 765.307 895.478 C 758.434 887.877 736.39 869.365 731.849 862.906 C 721.017 851.376 705.094 831.775 694.093 822.086 C 696.327 819.045 703.842 812.568 706.932 809.339 C 715.471 801.01 722.933 791.382 731.333 782.965 C 735.391 778.898 742.931 776.418 748.021 772.625 C 752.083 775.128 764.557 783.868 767.834 784.272 C 768.949 757.274 771.872 753.267 765.607 726.21 L 782.199 732.769 C 788.337 719.436 794.558 706.141 800.862 692.886 C 803.031 691.937 827.184 688.971 830.912 688.42 L 832.474 674.177 C 835.743 663.324 837.22 654.18 841.126 642.635 C 848.845 639.885 856.752 637.699 864.787 636.095 L 864.952 635.307 L 871.542 633.672 C 878.44 631.429 884.684 629.725 891.943 630.07 C 888.092 636.593 884.488 640.928 884.665 648.476 L 887.182 650.276 C 892.304 646.726 897.438 638.761 901.247 633.519 C 902.065 632.06 904.943 628.097 906.019 626.536 C 934.403 620.506 974.567 610.391 1002.11 606.292 z"/>
<path transform="translate(0,0)" fill="rgb(184,131,90)" d="M 1002.11 606.292 L 1004.26 607.755 C 1000.67 658.608 988.599 711.428 984.634 762.708 C 983.963 771.392 977.648 828.159 975.128 833.623 L 974.232 832.854 C 973.874 831.326 951.545 804.875 948.85 802.181 L 949.362 800.689 C 955.17 801.035 961.143 800.78 966.975 800.66 C 931.377 789.045 912.18 761.698 881.457 740.636 C 872.428 745.649 863.823 750.653 854.284 754.666 C 859.265 750.59 866.452 745.786 871.879 741.697 C 872.831 740.264 873.77 738.822 874.695 737.371 C 874.213 733.893 874.878 735.361 872.849 732.714 C 868.038 733.199 865.281 739.634 857.211 741.659 C 855.012 742.954 849.799 747.087 847.514 748.796 C 852.633 735.791 858.047 725.091 861.112 711.432 C 857.239 703.202 852.241 694.972 844.433 690.013 L 839.26 686.583 C 833.009 682.479 833.102 681.753 832.474 674.177 C 835.743 663.324 837.22 654.18 841.126 642.635 C 848.845 639.885 856.752 637.699 864.787 636.095 L 864.952 635.307 L 871.542 633.672 C 878.44 631.429 884.684 629.725 891.943 630.07 C 888.092 636.593 884.488 640.928 884.665 648.476 L 887.182 650.276 C 892.304 646.726 897.438 638.761 901.247 633.519 C 902.065 632.06 904.943 628.097 906.019 626.536 C 934.403 620.506 974.567 610.391 1002.11 606.292 z"/>
<path transform="translate(0,0)" fill="url(#Gradient5)" d="M 871.542 633.672 C 878.44 631.429 884.684 629.725 891.943 630.07 C 888.092 636.593 884.488 640.928 884.665 648.476 L 887.182 650.276 C 885.897 653.137 885.838 652.678 885.356 655.643 C 895.8 654.475 904.385 653.647 911.643 662.665 C 913.971 659.054 942.241 657.844 947.666 657.894 L 950.662 659.765 C 951.213 664.263 938.214 676.556 934.725 680.207 C 926.441 688.875 917.078 701.36 907.324 707.936 C 897.859 714.317 871.582 715.51 861.112 711.432 C 857.239 703.202 852.241 694.972 844.433 690.013 L 839.26 686.583 C 833.009 682.479 833.102 681.753 832.474 674.177 C 835.743 663.324 837.22 654.18 841.126 642.635 C 848.845 639.885 856.752 637.699 864.787 636.095 L 864.952 635.307 L 871.542 633.672 z"/>
<path transform="translate(0,0)" fill="rgb(231,230,230)" d="M 885.356 655.643 C 895.8 654.475 904.385 653.647 911.643 662.665 C 913.707 672.473 910.847 683.375 899.623 685.169 C 894.749 685.924 889.785 684.553 885.989 681.404 C 876.704 673.789 878.437 664.027 885.356 655.643 z"/>
<path transform="translate(0,0)" fill="rgb(69,68,68)" d="M 871.542 633.672 C 878.44 631.429 884.684 629.725 891.943 630.07 C 888.092 636.593 884.488 640.928 884.665 648.476 C 878.696 646.798 867.322 641.839 864.787 636.095 L 864.952 635.307 L 871.542 633.672 z"/>
<path transform="translate(0,0)" fill="rgb(86,86,85)" d="M 901.247 633.519 C 916.823 641.446 932.297 649.572 947.666 657.894 C 942.241 657.844 913.971 659.054 911.643 662.665 C 904.385 653.647 895.8 654.475 885.356 655.643 C 885.838 652.678 885.897 653.137 887.182 650.276 C 892.304 646.726 897.438 638.761 901.247 633.519 z"/>
<path transform="translate(0,0)" fill="rgb(52,50,50)" d="M 882.314 723.06 C 894.35 732.15 906.307 741.344 918.183 750.641 C 925.867 750.12 934.324 751.05 942.072 751.671 C 933.88 753.039 925.608 753.91 917.355 754.861 C 909.474 752.065 893.561 740.222 882.786 735.004 L 871.879 741.697 C 872.831 740.264 873.77 738.822 874.695 737.371 C 874.213 733.893 874.878 735.361 872.849 732.714 C 868.038 733.199 865.281 739.634 857.211 741.659 C 864.886 734.979 873.399 728.025 882.314 723.06 z"/>
<path transform="translate(0,0)" fill="rgb(184,131,90)" d="M 847.25 788.75 L 847.961 788.751 C 851.278 794.209 855.645 805.229 857.893 811.5 C 873.858 809.677 897.05 802.055 914.142 800.264 C 918.13 799.846 937.657 796.908 939.887 795.711 C 942.459 797.162 946.786 799.78 949.362 800.689 L 948.85 802.181 C 951.545 804.875 973.874 831.326 974.232 832.854 L 971.444 833.104 C 956.771 845.328 933.056 858.824 915.882 869.461 C 890.395 885.247 861.646 906.411 835.939 920.807 C 830.952 905.985 825.83 891.209 820.574 876.481 L 817.113 866.721 C 814.824 861.707 811.856 848.931 810.367 842.986 C 822.002 838.894 841.914 828.627 853.3 823.05 C 851.293 819.256 849.787 815.865 848.048 811.958 C 843.665 805.002 842.82 804.617 834.687 803.143 C 834.507 801.789 834.812 800.768 835.021 799.335 C 837.678 796.936 840.806 797.266 845.416 795.719 C 848.055 792.677 847.264 793.881 847.25 788.75 z"/>
<path transform="translate(0,0)" fill="rgb(196,144,97)" d="M 939.887 795.711 C 942.459 797.162 946.786 799.78 949.362 800.689 L 948.85 802.181 C 951.545 804.875 973.874 831.326 974.232 832.854 L 971.444 833.104 C 961.251 832.477 868.091 830.756 867.203 830.325 C 866.1 828.467 865.215 827.175 863.74 825.597 L 861.509 821.793 C 860.929 819.426 858.804 814.029 857.893 811.5 C 873.858 809.677 897.05 802.055 914.142 800.264 C 918.13 799.846 937.657 796.908 939.887 795.711 z"/>
<path transform="translate(0,0)" fill="rgb(159,109,74)" d="M 939.887 795.711 C 942.459 797.162 946.786 799.78 949.362 800.689 L 948.85 802.181 C 931.042 810.555 881.915 814.422 861.509 821.793 C 860.929 819.426 858.804 814.029 857.893 811.5 C 873.858 809.677 897.05 802.055 914.142 800.264 C 918.13 799.846 937.657 796.908 939.887 795.711 z"/>
<path transform="translate(0,0)" fill="rgb(184,131,90)" d="M 853.3 823.05 L 873.722 864.947 C 860.925 868.198 827.299 863.902 817.113 866.721 C 814.824 861.707 811.856 848.931 810.367 842.986 C 822.002 838.894 841.914 828.627 853.3 823.05 z"/>
<path transform="translate(0,0)" fill="rgb(52,50,50)" d="M 847.25 788.75 L 847.961 788.751 C 851.278 794.209 855.645 805.229 857.893 811.5 C 858.804 814.029 860.929 819.426 861.509 821.793 L 863.74 825.597 C 864.983 834.307 873.307 854.484 879.473 861.141 C 882.859 864.798 890.882 869.545 892.033 872.512 C 890.412 872.429 889.822 872.482 888.242 872.129 C 883.407 869.577 878.793 866.995 873.722 864.947 L 853.3 823.05 C 851.293 819.256 849.787 815.865 848.048 811.958 C 843.665 805.002 842.82 804.617 834.687 803.143 C 834.507 801.789 834.812 800.768 835.021 799.335 C 837.678 796.936 840.806 797.266 845.416 795.719 C 848.055 792.677 847.264 793.881 847.25 788.75 z"/>
<path transform="translate(0,0)" fill="rgb(159,109,74)" d="M 873.722 864.947 C 878.793 866.995 883.407 869.577 888.242 872.129 C 865.671 873.898 843.681 874.471 820.574 876.481 L 817.113 866.721 C 827.299 863.902 860.925 868.198 873.722 864.947 z"/>
<path transform="translate(0,0)" fill="rgb(69,68,68)" d="M 748.021 772.625 C 752.083 775.128 764.557 783.868 767.834 784.272 C 768.896 787.217 784.578 797.837 789.333 802.623 C 772.77 818.095 745.851 844.992 731.849 862.906 C 721.017 851.376 705.094 831.775 694.093 822.086 C 696.327 819.045 703.842 812.568 706.932 809.339 C 715.471 801.01 722.933 791.382 731.333 782.965 C 735.391 778.898 742.931 776.418 748.021 772.625 z"/>
<path transform="translate(0,0)" fill="rgb(196,144,97)" d="M 876.097 756.298 C 879.532 755.077 880.473 754.001 883.959 755.926 C 892.127 760.438 900.212 766.993 907.706 772.601 C 918.24 780.569 928.971 788.275 939.887 795.711 C 937.657 796.908 918.13 799.846 914.142 800.264 C 897.05 802.055 873.858 809.677 857.893 811.5 C 855.645 805.229 851.278 794.209 847.961 788.751 C 854.818 778.883 867.123 774.444 876.097 756.298 z"/>
<path transform="translate(0,0)" fill="rgb(159,109,74)" d="M 810.367 842.986 C 808.651 832.593 801.737 805.522 805.227 796.97 C 810.546 793.849 815.916 801.017 821.714 802.735 C 824.563 803.579 827.951 803.357 830.909 803.271 L 832.376 803.219 L 834.687 803.143 C 842.82 804.617 843.665 805.002 848.048 811.958 C 849.787 815.865 851.293 819.256 853.3 823.05 C 841.914 828.627 822.002 838.894 810.367 842.986 z"/>
<path transform="translate(0,0)" fill="rgb(196,144,97)" d="M 834.687 803.143 C 842.82 804.617 843.665 805.002 848.048 811.958 C 844.043 815.443 822.159 827.644 815.713 831.684 L 818.252 825.441 C 821.269 818.13 825.324 806.159 832.376 803.219 L 834.687 803.143 z"/>
<path transform="translate(0,0)" fill="rgb(69,68,68)" d="M 830.912 688.42 L 832.474 674.177 C 833.102 681.753 833.009 682.479 839.26 686.583 L 844.433 690.013 C 845.473 697.226 854.459 721.964 854.007 724.467 C 848.45 725.177 810.667 701.099 805.647 697.157 C 803.954 695.847 802.355 694.419 800.862 692.886 C 803.031 691.937 827.184 688.971 830.912 688.42 z"/>
<path transform="translate(0,0)" fill="rgb(159,109,74)" d="M 829.17 767.454 C 830.737 769.092 833.588 772.043 835.672 772.726 C 845.261 775.872 867.613 761.039 876.097 756.298 C 867.123 774.444 854.818 778.883 847.961 788.751 L 847.25 788.75 C 838.693 788.44 819.777 790.378 817.639 780.315 C 819.626 774.029 823.965 771.538 829.17 767.454 z"/>
<path transform="translate(0,0)" fill="rgb(159,109,74)" d="M 793.87 852.751 C 795.816 862.769 798.414 863.579 807.809 867.705 L 809.701 867.163 L 814.031 880.268 C 800.531 879.574 793.247 879.362 780.386 875.798 C 785.449 867.784 789.638 861.288 793.87 852.751 z"/>
<path transform="translate(0,0)" fill="rgb(184,131,90)" d="M 791.71 813.811 C 795.979 824.429 806.531 856.292 809.701 867.163 L 807.809 867.705 C 798.414 863.579 795.816 862.769 793.87 852.751 C 795.006 841.31 790.946 827.372 791.71 813.811 z"/>
<path transform="translate(0,0)" fill="rgb(159,109,74)" d="M 971.444 833.104 L 974.232 832.854 L 975.128 833.623 C 967.269 854.524 956.845 877.744 948.179 898.639 L 912.661 986.145 C 900.512 1015.78 885.228 1058.35 871.641 1086.41 L 871.049 1086.94 C 867.009 1096.77 860.447 1114.23 855.925 1123.17 C 818.195 1121.46 768.59 1123.51 730.317 1123.69 C 691.178 1123.87 646.096 1121.97 608.084 1123.34 C 603.442 1116.48 590.546 1085.46 586.983 1076.61 L 587.486 1074.63 C 592.69 1067.01 683.989 1014.48 698.039 1005.44 C 728.306 985.961 765.822 963.745 796.789 943.913 C 806.949 937.406 820.369 930.972 831.026 923.921 L 839.113 948.059 C 838.721 940.159 838.519 928.145 835.939 920.807 C 861.646 906.411 890.395 885.247 915.882 869.461 C 933.056 858.824 956.771 845.328 971.444 833.104 z"/>
<path transform="translate(0,0)" fill="rgb(212,161,114)" d="M 587.486 1074.63 C 597.038 1076.18 615.449 1076.49 625.873 1076.93 L 694.585 1079.65 L 871.049 1086.94 C 867.009 1096.77 860.447 1114.23 855.925 1123.17 C 818.195 1121.46 768.59 1123.51 730.317 1123.69 C 691.178 1123.87 646.096 1121.97 608.084 1123.34 C 603.442 1116.48 590.546 1085.46 586.983 1076.61 L 587.486 1074.63 z"/>
<path transform="translate(0,0)" fill="rgb(159,109,74)" d="M 676.019 810.915 C 683.985 812.611 689.065 819.629 694.093 822.086 C 705.094 831.775 721.017 851.376 731.849 862.906 C 736.39 869.365 758.434 887.877 765.307 895.478 L 767.441 893.759 L 767.422 896.523 C 768.458 898.42 769.293 900.124 770.229 902.074 C 769.383 908.605 766.455 915.606 762.992 921.19 C 733.221 969.188 702.37 979.832 651.648 993.803 C 637.553 971.871 626.763 943.703 637.238 918.12 C 643.138 903.709 652.419 893.786 662.456 882.235 C 661.724 879.302 661.053 875.947 662.462 873.244 C 664.113 855.722 672.243 829.869 676.019 810.915 z"/>
<path transform="translate(0,0)" fill="rgb(37,36,36)" d="M 676.019 810.915 C 683.985 812.611 689.065 819.629 694.093 822.086 C 705.094 831.775 721.017 851.376 731.849 862.906 C 736.39 869.365 758.434 887.877 765.307 895.478 C 737.878 921.781 714.587 923.443 680.536 935.243 C 675.721 922.44 663.082 885.426 662.462 873.244 C 664.113 855.722 672.243 829.869 676.019 810.915 z"/>
<path transform="translate(0,0)" fill="rgb(52,50,50)" d="M 706.913 751.166 C 719.936 758.447 734.678 765.714 748.021 772.625 C 742.931 776.418 735.391 778.898 731.333 782.965 C 722.933 791.382 715.471 801.01 706.932 809.339 C 703.842 812.568 696.327 819.045 694.093 822.086 C 689.065 819.629 683.985 812.611 676.019 810.915 C 677.618 807.708 694.536 798.797 698.969 796.145 L 706.913 751.166 z"/>
<path transform="translate(0,0)" fill="rgb(184,131,90)" d="M 717.102 774.362 C 720.288 775.237 724.238 776.624 726.12 779.332 C 725.691 782.303 725.543 781.507 722.263 783.975 C 719.146 785.829 717.056 787.613 714.013 786.868 C 713.313 783.601 715.889 777.842 717.102 774.362 z"/>
<path transform="translate(0,0)" fill="rgb(225,221,216)" d="M 896.495 530.134 C 896.45 533.581 896.251 534.264 895.122 537.352 C 897.613 539.015 898.154 538.438 901.678 538.583 C 893.07 546.017 884.557 553.911 875.92 561.165 C 871.154 574.359 871.402 618.389 871.542 633.672 L 864.952 635.307 C 862.259 630.608 862.834 572.588 863.44 563.464 C 866.293 554.051 879.793 549.435 882.169 539.883 C 887.526 538.901 892.231 533.838 896.495 530.134 z"/>
<path transform="translate(0,0)" fill="rgb(229,189,146)" d="M 823.09 560.685 C 849.367 542.709 850.225 544.195 882.169 539.883 C 879.793 549.435 866.293 554.051 863.44 563.464 C 863.64 560.263 863.252 559.817 861.599 556.865 C 852.233 540.134 834.363 563.592 823.09 560.685 z"/>
<path transform="translate(0,0)" fill="rgb(159,109,74)" d="M 498.792 850.747 C 505.139 857.428 528.461 924.445 532.741 936.056 C 545.829 970.719 559.099 1005.31 572.549 1039.84 C 575.392 1047.24 583.773 1070.7 586.983 1076.61 C 590.546 1085.46 603.442 1116.48 608.084 1123.34 C 598.048 1145.55 518.967 1260.02 518.034 1269.84 L 516.998 1269.49 L 516.244 1269.86 C 505.887 1267.97 464.357 1269.75 451.998 1270.07 L 334.277 1272.96 C 312.388 1273.53 280.52 1275.23 259.258 1273.5 C 266.873 1258.8 274.368 1238.68 280.54 1223.23 C 289.422 1201.57 298.091 1179.83 306.547 1158 C 312.499 1142.46 321.578 1114.97 330.353 1101.68 C 333.396 1097.08 351.184 1081.59 356.051 1077.25 C 369.896 1065.09 383.543 1052.7 396.988 1040.09 C 413.229 1025.64 421.622 1002.62 431.63 983.217 C 447.983 951.58 464.106 919.825 479.999 887.954 C 484.951 877.893 493.194 859.213 498.792 850.747 z"/>
<path transform="translate(0,0)" fill="rgb(140,91,59)" d="M 259.258 1273.5 C 266.873 1258.8 274.368 1238.68 280.54 1223.23 C 289.422 1201.57 298.091 1179.83 306.547 1158 C 312.499 1142.46 321.578 1114.97 330.353 1101.68 C 333.396 1097.08 351.184 1081.59 356.051 1077.25 C 369.896 1065.09 383.543 1052.7 396.988 1040.09 L 409.284 1039.84 C 417.071 1051.15 425.098 1070.17 431.09 1083.29 L 456.719 1139.64 C 472.823 1175.99 490.183 1211.81 506.415 1248.11 C 508.763 1253.36 515.866 1265.03 516.998 1269.49 L 516.244 1269.86 C 505.887 1267.97 464.357 1269.75 451.998 1270.07 L 334.277 1272.96 C 312.388 1273.53 280.52 1275.23 259.258 1273.5 z"/>
<path transform="translate(0,0)" fill="rgb(159,109,74)" d="M 259.258 1273.5 C 280.52 1275.23 312.388 1273.53 334.277 1272.96 L 451.998 1270.07 C 464.357 1269.75 505.887 1267.97 516.244 1269.86 L 516.998 1269.49 L 518.034 1269.84 L 518.436 1273.02 L 517.126 1273.98 C 517.237 1286.94 519.327 1358.44 523.114 1364.69 C 517.59 1375.16 511.872 1385.52 505.963 1395.78 C 494.532 1397.57 478.539 1399.78 466.975 1400.25 C 453.463 1415.03 439.485 1433.92 426.703 1449.48 C 421.949 1455.27 420.759 1480.69 418.264 1490.31 C 412.778 1490.44 408.622 1490.42 403.109 1490.18 C 394.687 1491.11 380.711 1491.19 372.185 1490.48 C 348.93 1488.55 326.061 1488.81 302.758 1488.74 C 256.313 1489.39 209.696 1488.41 163.232 1488.74 C 148.932 1488.85 136.208 1490.76 122.027 1492.23 C 132.355 1473.49 153.144 1442.91 165.389 1423.2 C 195.876 1373.94 226.663 1324.87 257.75 1275.98 L 259.258 1273.5 z"/>
<path transform="translate(0,0)" fill="rgb(140,91,59)" d="M 257.75 1275.98 C 264.967 1280.61 285.143 1355.35 289.387 1369.65 C 300.841 1408.25 314.262 1448.52 323.842 1487.49 C 316.806 1487.77 309.777 1488.19 302.758 1488.74 C 256.313 1489.39 209.696 1488.41 163.232 1488.74 C 148.932 1488.85 136.208 1490.76 122.027 1492.23 C 132.355 1473.49 153.144 1442.91 165.389 1423.2 C 195.876 1373.94 226.663 1324.87 257.75 1275.98 z"/>
<path transform="translate(0,0)" fill="rgb(184,131,90)" d="M 516.998 1269.49 L 518.034 1269.84 L 518.436 1273.02 L 517.126 1273.98 C 517.237 1286.94 519.327 1358.44 523.114 1364.69 C 517.59 1375.16 511.872 1385.52 505.963 1395.78 C 494.532 1397.57 478.539 1399.78 466.975 1400.25 C 453.463 1415.03 439.485 1433.92 426.703 1449.48 C 421.949 1455.27 420.759 1480.69 418.264 1490.31 C 412.778 1490.44 408.622 1490.42 403.109 1490.18 C 399.252 1489.64 393.104 1489.75 389.039 1489.69 C 395.283 1480.15 400.975 1470.47 406.801 1460.68 C 444.225 1397.78 479.074 1332.9 516.244 1269.86 L 516.998 1269.49 z"/>
<path transform="translate(0,0)" fill="url(#Gradient4)" d="M 608.084 1123.34 C 646.096 1121.97 691.178 1123.87 730.317 1123.69 C 768.59 1123.51 818.195 1121.46 855.925 1123.17 C 863.829 1141.1 878.266 1162.1 887.382 1181.17 C 859.611 1180.51 830.273 1181.03 802.398 1181.09 C 771.727 1180.96 741.055 1181.07 710.386 1181.43 C 695.965 1209.06 682.705 1237.23 669.436 1265.43 C 666.019 1272.69 650.724 1302.1 649.623 1308.07 C 648.442 1306.8 538.886 1277.89 530.518 1274.91 C 528.122 1274.06 522.024 1273.75 519.246 1273.98 L 518.436 1273.02 L 518.034 1269.84 C 518.967 1260.02 598.048 1145.55 608.084 1123.34 z"/>
<path transform="translate(0,0)" fill="rgb(140,91,59)" d="M 523.114 1364.69 C 519.327 1358.44 517.237 1286.94 517.126 1273.98 L 518.436 1273.02 L 519.246 1273.98 C 522.024 1273.75 528.122 1274.06 530.518 1274.91 C 538.886 1277.89 648.442 1306.8 649.623 1308.07 C 653.118 1323.59 656.63 1339.89 662.004 1354.85 L 668.391 1358.12 L 672.82 1360.89 L 674.411 1361.92 C 676.118 1370.59 671.78 1392.35 669.3 1401.06 C 664.969 1394 662.058 1389.45 656.352 1383.32 C 650.851 1377.12 647.279 1372.75 642.389 1366.07 C 627.252 1369.91 609.285 1379.05 596.079 1380.65 C 588.575 1386.75 590.69 1379.98 583.261 1383.73 C 580.775 1387.49 579.531 1390.45 577.651 1394.51 L 575.692 1397.22 C 574.84 1398.5 571.235 1403.76 570.837 1404.83 C 568.71 1408.44 566.674 1412.06 564.275 1415.49 C 559.091 1408 554.711 1401.72 548.922 1394.63 C 541.495 1385.83 531.042 1372.34 523.114 1364.69 z"/>
<path transform="translate(0,0)" fill="rgb(234,199,159)" d="M 523.114 1364.69 C 519.327 1358.44 517.237 1286.94 517.126 1273.98 L 518.436 1273.02 L 519.246 1273.98 C 529.857 1299.41 539.266 1326.55 549.752 1352.36 C 554.821 1364.84 567.523 1393.33 570.837 1404.83 C 568.71 1408.44 566.674 1412.06 564.275 1415.49 C 559.091 1408 554.711 1401.72 548.922 1394.63 C 541.495 1385.83 531.042 1372.34 523.114 1364.69 z"/>
<path transform="translate(0,0)" fill="rgb(69,68,68)" d="M 630.793 1347.32 C 640.879 1347.33 652.422 1352.95 662.004 1354.85 L 668.391 1358.12 L 672.82 1360.89 L 674.411 1361.92 C 676.118 1370.59 671.78 1392.35 669.3 1401.06 C 664.969 1394 662.058 1389.45 656.352 1383.32 C 650.851 1377.12 647.279 1372.75 642.389 1366.07 C 627.252 1369.91 609.285 1379.05 596.079 1380.65 C 607.123 1369.23 619.348 1360.03 630.793 1347.32 z"/>
<path transform="translate(0,0)" fill="rgb(86,86,85)" d="M 630.793 1347.32 C 640.879 1347.33 652.422 1352.95 662.004 1354.85 L 668.391 1358.12 L 672.82 1360.89 C 666.264 1363.71 649.911 1364.62 642.12 1365.26 C 638.312 1356.08 637.361 1355.26 630.793 1347.32 z"/>
<path transform="translate(0,0)" fill="rgb(69,68,68)" d="M 523.114 1364.69 C 531.042 1372.34 541.495 1385.83 548.922 1394.63 C 554.711 1401.72 559.091 1408 564.275 1415.49 C 556.099 1420.38 547.109 1440.5 541.464 1449.78 C 524.054 1455.83 507.683 1460.53 490.108 1467.05 C 485.744 1451.23 476.056 1411.62 466.975 1400.25 C 478.539 1399.78 494.532 1397.57 505.963 1395.78 C 511.872 1385.52 517.59 1375.16 523.114 1364.69 z"/>
<path transform="translate(0,0)" fill="rgb(37,36,36)" d="M 523.114 1364.69 C 531.042 1372.34 541.495 1385.83 548.922 1394.63 L 548.23 1397.15 C 542.086 1398.21 527.779 1391.85 522.56 1392.13 C 518.196 1392.36 513.763 1397.94 505.963 1395.78 C 511.872 1385.52 517.59 1375.16 523.114 1364.69 z"/>
<path transform="translate(0,0)" fill="rgb(37,36,36)" d="M 668.041 1351.38 C 675.834 1351.31 706.547 1350.47 712.856 1352.31 C 714.719 1354.19 714.275 1353.35 714.9 1355.91 C 718.225 1371.06 731.381 1385.13 745.951 1368.28 C 747.11 1366.94 748.088 1358.91 748.344 1356.6 C 760.014 1358.01 771.966 1364.42 783.81 1366.48 L 786.41 1368.53 C 785.392 1376.43 743.132 1397.11 734.28 1399.24 C 724.01 1401.71 706.601 1396.2 696.379 1393.68 C 685.918 1391.11 679.007 1388.46 673.749 1400.12 C 668.786 1405.44 656.779 1419.28 651.866 1423.49 L 650.976 1422.06 C 656.222 1416.58 662.289 1410.22 667.297 1404.58 C 670.836 1400.6 658.071 1389.43 656.352 1383.32 C 662.058 1389.45 664.969 1394 669.3 1401.06 C 671.78 1392.35 676.118 1370.59 674.411 1361.92 L 672.82 1360.89 L 668.391 1358.12 L 668.041 1351.38 z"/>
<path transform="translate(0,0)" fill="rgb(140,91,59)" d="M 636.55 1442.26 C 651.898 1440.62 667.256 1439.08 682.623 1437.62 C 691.293 1454.82 699.815 1469.79 709.349 1486.51 C 685.624 1485.96 665.096 1486.74 641.589 1487.94 C 638.048 1482.36 636.953 1450.96 636.55 1442.26 z"/>
<path transform="translate(0,0)" fill="rgb(159,109,74)" d="M 595.802 1441.45 C 599.171 1445.7 604.071 1452.23 607.717 1455.97 C 614.017 1456.24 620.807 1456.4 627.053 1456.84 C 629.573 1467.26 631.079 1476.55 632.827 1487.1 C 621.552 1487.51 610.272 1487.75 598.99 1487.84 C 599.791 1483.72 588.812 1459.83 586.462 1454.41 C 588.911 1449.35 591.846 1445.47 595.802 1441.45 z"/>
<path transform="translate(0,0)" fill="rgb(52,50,50)" d="M 686.49 1320.8 L 708.141 1318.89 C 705.328 1332.24 723.23 1331.95 727.569 1344.38 C 720 1345.74 718.103 1348.56 714.9 1355.91 C 714.275 1353.35 714.719 1354.19 712.856 1352.31 C 706.547 1350.47 675.834 1351.31 668.041 1351.38 C 671.065 1340.93 679.915 1329.24 686.49 1320.8 z"/>
<path transform="translate(0,0)" fill="rgb(86,86,85)" d="M 734.891 1321.12 C 737.543 1318.41 740.582 1315.67 743.363 1313.06 L 744.068 1315.18 C 739.865 1321.6 734.918 1325.74 730.086 1331.55 C 734.579 1328.75 736.334 1327.93 739.995 1323.93 L 744.503 1324.08 C 744.624 1334.17 775.75 1357.71 783.81 1366.48 C 771.966 1364.42 760.014 1358.01 748.344 1356.6 C 739.637 1347.46 739.656 1348.06 727.569 1344.38 C 723.23 1331.95 705.328 1332.24 708.141 1318.89 L 708.961 1318.84 C 711.221 1321.51 709.829 1320.72 713.281 1321.31 C 716.595 1318.48 715.396 1320.26 716.338 1315.39 C 716.997 1318.4 716.466 1317.39 718.268 1319.78 C 723.082 1321.68 729.388 1321.07 734.891 1321.12 z"/>
<path transform="translate(0,0)" fill="rgb(234,199,159)" d="M 570.391 1448.29 L 580.587 1461.85 L 586.462 1454.41 C 588.812 1459.83 599.791 1483.72 598.99 1487.84 C 587.784 1487.76 569.239 1487.15 558.652 1488.11 C 557.972 1480.58 567.517 1456.21 570.391 1448.29 z"/>
<path transform="translate(0,0)" fill="rgb(69,68,68)" d="M 577.651 1394.51 C 585.331 1398.03 606.525 1397.48 616.779 1399.18 C 604.87 1410.17 594.618 1418.38 580.606 1426.73 C 579.761 1417.78 579.127 1405.23 575.692 1397.22 L 577.651 1394.51 z"/>
<path transform="translate(0,0)" fill="rgb(140,91,59)" d="M 673.749 1400.12 C 675.754 1405.19 677.128 1412.17 678.406 1417.6 C 673.619 1418.82 655.467 1423.71 651.866 1423.49 C 656.779 1419.28 668.786 1405.44 673.749 1400.12 z"/>
<path transform="translate(0,0)" fill="rgb(140,91,59)" d="M 623.539 1429.29 C 626.467 1428.83 627.825 1429.51 630.2 1430.82 C 631.548 1433.94 631.421 1432.31 630.063 1435.88 C 627.465 1438.42 625.854 1438.28 622.242 1438.86 C 618.189 1439.15 617.56 1439.05 614.364 1437.08 C 613.032 1434.36 613.249 1435.84 614.376 1432.43 C 616.911 1429.68 619.676 1429.85 623.539 1429.29 z"/>
<path transform="translate(0,0)" fill="rgb(159,109,74)" d="M 956.015 1307.81 C 982.307 1313.32 1146.53 1327.66 1154.1 1332.76 L 1154.51 1332.97 L 1155.32 1334.24 C 1160.82 1352.24 1202.15 1484.82 1200.99 1491.44 L 1199.93 1492.99 C 1145.3 1491.49 1084.28 1492.74 1029.09 1492.72 C 995.038 1493.17 960.947 1491.03 926.952 1494.27 C 918.527 1495.08 886.342 1496 881.19 1492.02 L 881.11 1486.61 C 888.557 1477.84 950.431 1326.1 956.015 1307.81 z"/>
<path transform="translate(0,0)" fill="rgb(196,144,97)" d="M 1154.1 1332.76 L 1154.51 1332.97 L 1155.32 1334.24 C 1160.82 1352.24 1202.15 1484.82 1200.99 1491.44 L 1199.93 1492.99 C 1145.3 1491.49 1084.28 1492.74 1029.09 1492.72 L 1028.6 1491.32 C 1035.5 1481.01 1050.79 1463.29 1059.01 1453 C 1080.54 1425.74 1102.29 1398.64 1124.24 1371.71 C 1130.26 1364.22 1150.6 1339.79 1154.1 1332.76 z"/>
<path transform="translate(0,0)" fill="rgb(234,199,159)" d="M 1289.48 579.763 C 1294.67 583.727 1302.53 592.38 1307.31 597.409 C 1314.09 604.529 1324.01 612.917 1330.21 620.005 C 1342.48 634.026 1350.21 644.103 1364.54 656.552 C 1381.1 664.318 1410.79 671.309 1425.65 679.562 C 1424.38 692.216 1424.42 709.426 1424.16 722.401 L 1422.92 803.511 C 1422.8 809.373 1423 835.185 1422.06 838.582 C 1405.48 839.726 1376.72 838.682 1359.46 838.351 L 1252.7 836.041 C 1246.28 814.729 1234.48 787.176 1226.77 765.467 C 1219.03 743.061 1211.03 720.75 1202.75 698.539 C 1198.9 688.172 1193.89 673.535 1189.04 663.962 L 1190.93 663.574 C 1203.15 657.607 1280.72 591.088 1289.48 579.763 z"/>
<path transform="translate(0,0)" fill="rgb(229,189,146)" d="M 1289.48 579.763 C 1294.67 583.727 1302.53 592.38 1307.31 597.409 C 1314.09 604.529 1324.01 612.917 1330.21 620.005 C 1342.48 634.026 1350.21 644.103 1364.54 656.552 C 1364.48 686.926 1369.49 717.198 1369.06 747.077 C 1315.92 722.094 1262.29 698.389 1209.41 672.869 C 1202.98 669.766 1197.23 667.124 1190.93 663.574 C 1203.15 657.607 1280.72 591.088 1289.48 579.763 z"/>
<path transform="translate(0,0)" fill="url(#Gradient3)" d="M 909.202 535.388 C 919.876 532.955 932.547 531.789 943.596 530.214 L 1002.28 521.418 L 1072 510.799 C 1076.66 510.057 1115.32 503.316 1117.94 504.359 C 1174.48 526.785 1232.67 554.804 1288.72 579.254 C 1288.98 579.423 1289.23 579.593 1289.48 579.763 C 1280.72 591.088 1203.15 657.607 1190.93 663.574 L 1189.04 663.962 C 1181.68 662.674 1167.31 657.82 1159.66 655.459 L 1106.46 639.149 L 1040.75 619.402 C 1032.15 616.829 1011.7 611.268 1004.26 607.755 L 1002.11 606.292 C 974.567 610.391 934.403 620.506 906.019 626.536 C 904.943 628.097 902.065 632.06 901.247 633.519 C 897.438 638.761 892.304 646.726 887.182 650.276 L 884.665 648.476 C 884.488 640.928 888.092 636.593 891.943 630.07 C 884.684 629.725 878.44 631.429 871.542 633.672 C 871.402 618.389 871.154 574.359 875.92 561.165 C 884.557 553.911 893.07 546.017 901.678 538.583 C 903.668 537.515 907.013 536.283 909.202 535.388 z"/>
<path transform="translate(0,0)" fill="rgb(212,161,114)" d="M 875.92 561.165 C 884.723 564.701 918.406 577.609 924.757 581.539 C 916.365 588.056 895.522 621.127 891.943 630.07 C 884.684 629.725 878.44 631.429 871.542 633.672 C 871.402 618.389 871.154 574.359 875.92 561.165 z"/>
<path transform="translate(0,0)" fill="rgb(212,161,114)" d="M 946.983 585.671 C 954.592 588.485 997.908 605.568 1002.11 606.292 C 974.567 610.391 934.403 620.506 906.019 626.536 C 912.377 616.366 921.862 600.597 928.991 591.552 C 934.23 589.517 941.416 587.532 946.983 585.671 z"/>
<path transform="translate(0,0)" fill="rgb(225,221,216)" d="M 924.757 581.539 C 937.148 578.298 969.349 566.775 979.368 568.305 L 979.898 569.666 C 972.471 577.568 956.634 580.257 946.983 585.671 C 941.416 587.532 934.23 589.517 928.991 591.552 C 921.862 600.597 912.377 616.366 906.019 626.536 C 904.943 628.097 902.065 632.06 901.247 633.519 C 897.438 638.761 892.304 646.726 887.182 650.276 L 884.665 648.476 C 884.488 640.928 888.092 636.593 891.943 630.07 C 895.522 621.127 916.365 588.056 924.757 581.539 z"/>
<path transform="translate(0,0)" fill="url(#Gradient2)" d="M 1355.56 1257.97 C 1370.54 1261.28 1385.45 1262.88 1400.69 1264.25 C 1412.53 1275.77 1424.04 1287.64 1435.19 1299.83 C 1441.12 1305.83 1442.49 1308.23 1450.61 1310.22 L 1452.55 1309.34 C 1453.11 1305.12 1451.8 1303.66 1449.19 1300.17 C 1453.21 1296.88 1456.89 1297.1 1461.93 1297.53 C 1464.69 1298.19 1464.93 1298.56 1467.55 1297.77 C 1473.33 1296.41 1491.18 1299.33 1497.7 1300.62 C 1500.61 1305.75 1507.47 1322.13 1509.76 1324.05 L 1511.12 1329.03 C 1510.61 1332.79 1509.49 1337.42 1510.71 1340.84 L 1511.8 1341.74 C 1517.95 1342.26 1536.23 1346.79 1541.7 1349.57 C 1543.55 1354.72 1556.54 1379.35 1559.8 1382.49 L 1563.2 1386.1 C 1560.6 1388.5 1554.92 1405.33 1553.92 1409.36 C 1554.79 1410.83 1554.95 1411.28 1556.08 1412.56 C 1558.69 1417.2 1562.64 1420.21 1566.73 1423.7 C 1570.59 1422.83 1572.11 1422.1 1575.88 1423.3 C 1578.16 1425.32 1578.31 1425.22 1579.72 1427.85 C 1573.09 1441.41 1569.16 1442.52 1555.58 1449.14 C 1551.89 1460.94 1548.85 1477.76 1546.88 1490.01 C 1546.51 1513.41 1541.08 1521.97 1521.87 1536.01 C 1529.68 1512.4 1536.13 1519.82 1539.51 1490.99 L 1495.09 1490.7 C 1485.44 1489.82 1472.38 1490.09 1462.46 1490.01 C 1457.27 1496.14 1444.79 1506.81 1436.57 1506.19 L 1435.87 1504.62 C 1438.74 1498.5 1443.78 1494.98 1449 1490.9 C 1438.66 1490.27 1428.08 1490.42 1417.7 1490.41 L 1411.95 1489.73 C 1406.75 1485.01 1399.08 1469.27 1395.37 1462.63 C 1378.24 1432 1363.11 1400.23 1345.96 1369.61 C 1342.83 1364.02 1339.68 1357.88 1335.91 1352.74 C 1339.93 1325.38 1350.25 1287.33 1355.56 1257.97 z"/>
<path transform="translate(0,0)" fill="rgb(140,91,59)" d="M 1539.91 1427.97 C 1544.49 1420.16 1546.54 1414.05 1556.08 1412.56 C 1558.69 1417.2 1562.64 1420.21 1566.73 1423.7 C 1570.59 1422.83 1572.11 1422.1 1575.88 1423.3 C 1578.16 1425.32 1578.31 1425.22 1579.72 1427.85 C 1573.09 1441.41 1569.16 1442.52 1555.58 1449.14 C 1551.89 1460.94 1548.85 1477.76 1546.88 1490.01 C 1546.51 1513.41 1541.08 1521.97 1521.87 1536.01 C 1529.68 1512.4 1536.13 1519.82 1539.51 1490.99 L 1495.09 1490.7 C 1498.74 1480.07 1500.5 1434.64 1501.08 1421.56 C 1513.96 1424.05 1526.91 1426.19 1539.91 1427.97 z"/>
<path transform="translate(0,0)" fill="rgb(52,50,50)" d="M 1566.73 1423.7 C 1570.59 1422.83 1572.11 1422.1 1575.88 1423.3 C 1578.16 1425.32 1578.31 1425.22 1579.72 1427.85 C 1573.09 1441.41 1569.16 1442.52 1555.58 1449.14 C 1551.89 1460.94 1548.85 1477.76 1546.88 1490.01 C 1546.51 1513.41 1541.08 1521.97 1521.87 1536.01 C 1529.68 1512.4 1536.13 1519.82 1539.51 1490.99 C 1540.62 1483.71 1541.91 1441.57 1544.04 1434.79 C 1544.18 1434.32 1562.05 1426.91 1565.83 1424.33 L 1566.73 1423.7 z"/>
<path transform="translate(0,0)" fill="rgb(37,36,36)" d="M 1459.19 1318.92 C 1461.73 1322.08 1463.7 1325.18 1465.93 1328.55 L 1467.71 1327.67 C 1480.94 1340.4 1487.39 1351.96 1495.68 1367.97 C 1478.02 1373.4 1464.26 1376.17 1445.84 1378.16 C 1436.89 1372.63 1397.59 1350.07 1395.32 1340.8 C 1396.62 1338.61 1395.68 1339.22 1397.95 1338.57 C 1410.06 1335.17 1420.73 1332.07 1433.09 1329.69 C 1440.54 1319.59 1447.4 1320.17 1459.19 1318.92 z"/>
<path transform="translate(0,0)" fill="rgb(231,230,230)" d="M 1459.19 1318.92 C 1461.73 1322.08 1463.7 1325.18 1465.93 1328.55 C 1464.08 1335.61 1462.06 1343.33 1455.09 1346.72 C 1439.23 1354.44 1432.57 1343.84 1433.09 1329.69 C 1440.54 1319.59 1447.4 1320.17 1459.19 1318.92 z"/>
<path transform="translate(0,0)" fill="url(#Gradient1)" d="M 1449.19 1300.17 C 1453.21 1296.88 1456.89 1297.1 1461.93 1297.53 C 1464.69 1298.19 1464.93 1298.56 1467.55 1297.77 C 1473.33 1296.41 1491.18 1299.33 1497.7 1300.62 C 1500.61 1305.75 1507.47 1322.13 1509.76 1324.05 L 1511.12 1329.03 C 1496.64 1328.95 1482.16 1328.49 1467.71 1327.67 L 1465.93 1328.55 C 1463.7 1325.18 1461.73 1322.08 1459.19 1318.92 C 1447.4 1320.17 1440.54 1319.59 1433.09 1329.69 C 1420.73 1332.07 1410.06 1335.17 1397.95 1338.57 C 1406.18 1321.49 1424.02 1318.17 1435.19 1299.83 C 1441.12 1305.83 1442.49 1308.23 1450.61 1310.22 L 1452.55 1309.34 C 1453.11 1305.12 1451.8 1303.66 1449.19 1300.17 z"/>
<path transform="translate(0,0)" fill="rgb(140,91,59)" d="M 1505.03 1380.59 C 1509.62 1383.36 1522 1401.27 1525.3 1406.38 L 1524.72 1407.84 C 1517.94 1405.18 1509.81 1401.62 1502.6 1401.38 C 1502.98 1394.96 1503.27 1386.58 1505.03 1380.59 z"/>
<path transform="translate(0,0)" fill="rgb(229,189,146)" d="M 1155.32 1334.24 C 1163.46 1329.57 1311.02 1351.9 1335.91 1352.74 C 1339.68 1357.88 1342.83 1364.02 1345.96 1369.61 C 1363.11 1400.23 1378.24 1432 1395.37 1462.63 C 1399.08 1469.27 1406.75 1485.01 1411.95 1489.73 L 1417.7 1490.41 C 1408.42 1493.27 1402.85 1492.7 1393.24 1493.24 C 1344.25 1495.97 1295.08 1494.84 1246.02 1494.85 C 1230.79 1494.85 1215.46 1492.92 1199.93 1492.99 L 1200.99 1491.44 C 1202.15 1484.82 1160.82 1352.24 1155.32 1334.24 z"/>
<path transform="translate(0,0)" fill="rgb(231,230,230)" fill-opacity="0.882353" d="M 896.495 530.134 C 899.398 526.745 903.224 524.035 906.765 521.253 L 912.223 525.765 C 912.335 527.198 912.41 527.719 912.337 529.158 C 910.691 531.688 909.608 532.61 909.202 535.388 C 907.013 536.283 903.668 537.515 901.678 538.583 C 898.154 538.438 897.613 539.015 895.122 537.352 C 896.251 534.264 896.45 533.581 896.495 530.134 z"/>
<path transform="translate(0,0)" fill="rgb(231,230,230)" fill-opacity="0.972549" d="M 906.765 521.253 C 917.156 515.503 925.003 512.302 934.903 505.352 C 927.466 513.122 919.488 521.184 912.337 529.158 C 912.41 527.719 912.335 527.198 912.223 525.765 L 906.765 521.253 z"/>
</svg>